<?xml version="1.0" standalone="no"?><!DOCTYPE svg PUBLIC "-//W3C//DTD SVG 1.1//EN" "http://www.w3.org/Graphics/SVG/1.1/DTD/svg11.dtd"><svg t="1590498049301" class="icon" viewBox="0 0 1194 1024" version="1.1" xmlns="http://www.w3.org/2000/svg" p-id="17502" xmlns:xlink="http://www.w3.org/1999/xlink" width="233.203125" height="200"><defs><style type="text/css"></style></defs><path d="M119.466667 307.2l409.6 512c34.133333 34.133333 85.333333 34.133333 119.466666 0l17.066667-17.066667 409.6-512c34.133333-34.133333 17.066667-85.333333-17.066667-119.466666H187.733333c-51.2 0-85.333333 34.133333-85.333333 85.333333 0 17.066667 0 34.133333 17.066667 51.2z" fill="#1afa29" p-id="17503"></path><path d="M597.333333 904.533333c-51.2 0-85.333333-17.066667-119.466666-51.2L68.266667 341.333333c-34.133333-17.066667-34.133333-51.2-34.133334-85.333333 0-85.333333 68.266667-153.6 153.6-153.6H1024c34.133333 0 68.266667 17.066667 102.4 34.133333 17.066667 34.133333 34.133333 68.266667 34.133333 102.4s0 85.333333-34.133333 102.4L716.8 853.333333l-17.066667 17.066667c-34.133333 34.133333-68.266667 34.133333-102.4 34.133333zM187.733333 238.933333c-17.066667 0-34.133333 0-34.133333 17.066667v17.066667l409.6 512s17.066667 17.066667 34.133333 0l426.666667-512v-34.133334H187.733333z" fill="#1afa29" p-id="17504"></path></svg>