<?xml version="1.0" standalone="no"?><!DOCTYPE svg PUBLIC "-//W3C//DTD SVG 1.1//EN" "http://www.w3.org/Graphics/SVG/1.1/DTD/svg11.dtd"><svg t="1590312700269" class="icon" viewBox="0 0 1024 1024" version="1.1" xmlns="http://www.w3.org/2000/svg" p-id="2158" xmlns:xlink="http://www.w3.org/1999/xlink" width="200" height="200"><defs><style type="text/css"></style></defs><path d="M1024 512c0 282.767-229.242 512-512 512C229.233 1024 0 794.767 0 512S229.233 0 512 0c282.758 0 512 229.233 512 512z" fill="#EEF5FF" p-id="2159"></path><path d="M210.627 709.257c-7.087 0-12.854-5.75-12.854-12.818V329.057c0-7.059 5.766-12.801 12.854-12.801h602.746c7.088 0 12.854 5.742 12.854 12.801v367.382c0 7.068-5.766 12.818-12.854 12.818H210.627z" fill="#FFFFFF" p-id="2160"></path><path d="M813.373 318.756c5.705 0 10.354 4.593 10.354 10.301v367.382c0 5.687-4.648 10.318-10.354 10.318H210.627c-5.705 0-10.354-4.632-10.354-10.318V329.057c0-5.708 4.648-10.301 10.354-10.301h602.746m0-5H210.627c-8.466 0-15.354 6.864-15.354 15.301v367.382c0 8.446 6.888 15.318 15.354 15.318h602.746c8.466 0 15.354-6.872 15.354-15.318V329.057c0-8.437-6.888-15.301-15.354-15.301z" fill="#CCCCCC" p-id="2161"></path><path d="M148.861 332.156h3.298c5.582 0 10.118-4.552 10.118-10.117v-53.973h53.883a10.073 10.073 0 0 0 10.115-10.101v-3.239c0-5.55-4.52-10.057-10.115-10.057h-67.299c-5.58 0-10.088 4.507-10.088 10.057v67.312c0 5.566 4.508 10.118 10.088 10.118zM875.141 244.667h-67.299c-5.582 0-10.117 4.446-10.117 10.056v3.312c0 5.595 4.535 10.07 10.117 10.07h53.977v53.905c0 5.625 4.491 10.115 10.055 10.115h3.268c5.565 0 10.086-4.49 10.086-10.115v-67.288c-0.001-5.609-4.522-10.055-10.087-10.055zM875.139 691.83h-3.296a10.082 10.082 0 0 0-10.104 10.104v53.986h-53.896a10.075 10.075 0 0 0-10.117 10.102v3.238c0 5.551 4.521 10.073 10.117 10.073H875.14c5.596 0 10.088-4.522 10.088-10.073v-67.326a10.071 10.071 0 0 0-10.089-10.104zM216.15 755.881h-53.972v-53.924a10.025 10.025 0 0 0-10.054-10.068h-3.269c-5.55 0-10.083 4.475-10.083 10.068v67.306c0 5.591 4.533 10.068 10.083 10.068H216.149c5.575 0 10.125-4.478 10.125-10.068v-3.312c0.001-5.58-4.548-10.07-10.124-10.07z" fill="#46ABFF" p-id="2162"></path><path d="M788.943 453.906c0 2.879-2.332 5.176-5.229 5.176H523.436c-2.863 0-5.217-2.297-5.217-5.176a5.216 5.216 0 0 1 5.217-5.215h260.279a5.204 5.204 0 0 1 5.228 5.215zM788.943 512.82c0 2.88-2.332 5.195-5.229 5.195H523.436c-2.863 0-5.217-2.315-5.217-5.195 0-2.879 2.354-5.213 5.217-5.213h260.279a5.215 5.215 0 0 1 5.228 5.213zM788.943 571.714a5.214 5.214 0 0 1-5.229 5.214H523.436c-2.863 0-5.217-2.332-5.217-5.214 0-2.88 2.354-5.177 5.217-5.177h260.279c2.896 0 5.228 2.297 5.228 5.177zM788.943 630.647a5.216 5.216 0 0 1-5.229 5.215H523.436c-2.863 0-5.217-2.335-5.217-5.215 0-2.862 2.354-5.195 5.217-5.195h260.279c2.896 0 5.228 2.333 5.228 5.195z" fill="#B3B3B3" p-id="2163"></path><path d="M376.486 512.556c-0.438-3.828 1.404-17.699 1.404-17.699h-47.07s1.878 13.871 1.351 17.699c-0.494 3.828-20.236 16.099-20.236 16.099l12.469 58.17h59.92l12.453-58.17c0-0.001-19.763-12.271-20.291-16.099z" fill="#F4F4F4" p-id="2164"></path><path d="M354.338 570.473l-32.54-49.441-4.319 2.06 32.885 125.73h3.974zM354.338 570.473l32.576-49.441 4.338 2.06-32.922 125.73h-3.992z" fill="#FFFFFF" p-id="2165"></path><path d="M377.525 496.916l-15.896-2.06h-30.808s1.878 13.871 1.351 17.699c-0.039 0.329-0.221 0.747-0.586 1.202 3.865 3.885 10.137 9.663 14.822 10.957 7.182 1.859 11.686 1.15 16.989-2.497 5.251-3.59 14.128-25.301 14.128-25.301z" fill="#E8E8E8" p-id="2166"></path><path d="M367.664 648.822h-26.652l5.906-75.707h14.875z" fill="#EFBB4D" p-id="2167"></path><path d="M302.219 532.117s-20.291 7.309-33.762 15.166c-13.508 7.748-22.275 16.68-23.844 25.395-1.531 8.621-10.7 62.746-10.974 66.027-0.257 3.338 1.112 10.117 7.163 10.117h96.727l-35.31-116.705z" fill="#46ABFF" p-id="2168"></path><path d="M299.794 561.119l-0.784 32.141 34.637 55.562h3.882l-29.97-89.58z" fill="#0066DB" p-id="2169"></path><path d="M317.479 523.092l32.886 125.73H337.53s-34.764-65.844-35.311-67.358c-0.527-1.493-1.111-3.025 0.675-4.85 1.822-1.804 6.308-5.304 6.855-5.96 0.581-0.711 1.292-3.373-2.006-3.373-3.301 0-2.48 0.184-5.341 0.184-2.846 0-3.482-2.79-3.482-4.504 0-1.75 3.17-32.467 3.17-32.467l15.389-7.402z" fill="#1F95FF" p-id="2170"></path><path d="M255.168 587.098l0.109 61.724h16.243z" fill="#0066DB" p-id="2171"></path><path d="M406.474 532.117s20.271 7.309 33.745 15.166c13.544 7.748 22.311 16.68 23.862 25.395 1.513 8.621 10.755 62.746 11.011 66.027 0.236 3.338-1.131 10.117-7.202 10.117h-96.763l35.347-116.705z" fill="#46ABFF" p-id="2172"></path><path d="M408.898 561.119l0.784 32.141-34.618 55.562h-3.937l29.986-89.58z" fill="#0066DB" p-id="2173"></path><path d="M391.252 523.092l-32.922 125.73h12.797s34.8-65.844 35.347-67.358c0.566-1.493 1.112-3.025-0.655-4.85-1.822-1.804-6.307-5.304-6.873-5.96-0.603-0.711-1.33-3.373 2.006-3.373 3.281 0 2.498 0.184 5.324 0.184 2.896 0 3.499-2.79 3.499-4.504 0-1.75-3.136-32.467-3.136-32.467l-15.387-7.402z" fill="#1F95FF" p-id="2174"></path><path d="M453.578 587.098l-0.125 61.724h-16.279z" fill="#0066DB" p-id="2175"></path><path d="M357.801 579.807c-1.803 1.821-4.74 1.821-6.524 0l-10.485-10.447c-1.803-1.822-1.803-4.794 0-6.58l10.485-10.482c1.784-1.805 4.722-1.805 6.524 0l10.52 10.482c1.748 1.786 1.748 4.758 0 6.58l-10.52 10.447z" fill="#F6CE5C" p-id="2176"></path><path d="M399.602 447.402c0 32.412-20.289 58.719-45.264 58.719-24.957 0-45.191-26.307-45.191-58.719 0-32.392 20.234-58.679 45.191-58.679 24.975 0.001 45.264 26.288 45.264 58.679z" fill="#F3F3F3" p-id="2177"></path><path d="M354.338 388.724c-24.957 0-45.191 26.287-45.191 58.679 0 8.605 1.477 16.826 3.992 24.191 8.35-3.373 21.711-9.389 32.029-16.824 16.279-11.669 20.289-24.191 20.289-24.191s5.706 6.889 15.951 16.242c5.724 5.231 12.56 8.786 17.428 10.974 0.475-3.354 0.766-6.836 0.766-10.392 0-32.392-20.289-58.679-45.264-58.679z" fill="#E6E6E6" p-id="2178"></path><path d="M303.932 461.293s23.717-8.348 40.016-20.307c16.297-11.94 20.088-25.594 20.088-25.594s5.908 7.947 16.135 17.445c10.189 9.553 22.659 17.537 22.659 17.537s4.337-20.107 2.241-33.088c-2.043-13.016-6.053-26.669-15.914-32.593-9.844-5.89-16.316-5.524-16.316-5.524s-14.346-10.41-33.742-7.639c-19.359 2.753-38.227 22.916-41.018 49.914-2.79 26.999 5.851 39.849 5.851 39.849z" fill="#2763AB" p-id="2179"></path><path d="M846.707 388.764c4.904 0 8.806 3.957 8.806 8.733v2.899c0 4.885-3.901 8.75-8.806 8.75H177.239a8.707 8.707 0 0 1-8.753-8.75v-2.899c0-4.776 3.901-8.733 8.753-8.733h669.468z" fill="#1F95FF" p-id="2180"></path></svg>