<?xml version="1.0" standalone="no"?><!DOCTYPE svg PUBLIC "-//W3C//DTD SVG 1.1//EN" "http://www.w3.org/Graphics/SVG/1.1/DTD/svg11.dtd"><svg t="1590498334656" class="icon" viewBox="0 0 1024 1024" version="1.1" xmlns="http://www.w3.org/2000/svg" p-id="835" xmlns:xlink="http://www.w3.org/1999/xlink" width="200" height="200"><defs><style type="text/css"></style></defs><path d="M90.52 451.914l397.39 331.29c13.85 11.53 33.96 11.53 47.81 0l397.39-331.29a74.692 74.692 0 0 0 26.89-57.52v-122.88c-0.12-20.63-16.94-37.25-37.57-37.13-6.48 0.04-12.84 1.77-18.45 5.01l-382.45 224.09a18.646 18.646 0 0 1-18.67 0l-382.45-224.09c-17.86-10.31-40.71-4.19-51.02 13.67a37.284 37.284 0 0 0-5 18.46v124a74.618 74.618 0 0 0 26.13 56.39z" fill="#43EDCC" p-id="836"></path><path d="M502.48 461.254l-382.46-224.1c-17.86-10.31-40.71-4.19-51.02 13.67a37.284 37.284 0 0 0-5 18.46v124a74.692 74.692 0 0 0 26.89 57.52l397.39 331.29a37.327 37.327 0 0 0 23.9 8.59v-327.93c-3.32 0.36-6.67-0.16-9.71-1.53v0.03z" fill="#3FBCAA" p-id="837"></path></svg>