<?xml version="1.0" standalone="no"?><!DOCTYPE svg PUBLIC "-//W3C//DTD SVG 1.1//EN" "http://www.w3.org/Graphics/SVG/1.1/DTD/svg11.dtd"><svg t="1590327528811" class="icon" viewBox="0 0 1024 1024" version="1.1" xmlns="http://www.w3.org/2000/svg" p-id="2157" xmlns:xlink="http://www.w3.org/1999/xlink" width="200" height="200"><defs><style type="text/css"></style></defs><path d="M1024 512c0 282.767-229.242 512-512 512C229.233 1024 0 794.767 0 512S229.233 0 512 0c282.758 0 512 229.233 512 512z" fill="#EEF5FF" p-id="2158"></path><path d="M795.908 796.594l-88.323-30.713-50.195-32.203 88.253 30.681z" fill="#808080" p-id="2159"></path><path d="M779.512 563.149l-0.071 2.833c0-0.327-0.017-0.601-0.072-0.889 0-0.201-0.036-0.401-0.036-0.617-0.036-0.672-0.24-1.309-0.31-2.018l0.489 0.543c0 0.094 0.033 0.111 0 0.148z" fill="#FCFCFC" p-id="2160"></path><path d="M779.44 562.658l0.071-1.582v1.926l-0.489-0.543c-2.178-19.58-14.799-32.712-31.019-32.187l-2.903-3.03c18.577-2.434 33.357 12.659 34.34 35.416z" fill="#FCFCFC" p-id="2161"></path><path d="M742.63 527.477c0.819-0.16 1.65-0.126 2.471-0.234l2.903 3.03c-1.778 0.02-3.52 0.09-5.374 0.491-19.356 4.108-35.354 25.81-37.316 49.498 0 0.194-0.035 0.341-0.035 0.544 0 0.306-0.021 0.655-0.074 0.977l-0.069-2.81c0-0.69 0-1.403 0.016-2.127l0.106 1.631c1.327-24.3 17.632-46.804 37.372-51z" fill="#FCFCFC" p-id="2162"></path><path d="M742.63 531.256c-14.473 3.035-27.076 15.906-33.322 32.094l-0.217 0.198c6.136-16.493 18.886-29.679 33.539-32.784 0.434-0.09 0.784-0.071 1.199-0.09l-0.601 0.494c-0.165 0.018-0.397 0-0.598 0.088z" fill="#FCFCFC" p-id="2163"></path><path d="M742.63 531.256c19.269-4.125 34.956 10.592 36.702 33.221 0.036 0.216 0.036 0.416 0.092 0.617 0.035 1.346 0.088 2.776 0.088 4.157-0.144 25.211-16.87 49.312-37.427 53.692-20.573 4.356-37.17-12.664-36.989-37.871 0-1.454 0.055-2.853 0.183-4.267 0-0.203 0.035-0.35 0.035-0.544 2.089-23.505 18.05-44.956 37.316-49.005z" fill="#0073BC" p-id="2164"></path><path d="M755.454 530.928l-8.65-0.565c3.019-0.217 5.904-0.091 8.65 0.565z" fill="#FCFCFC" p-id="2165"></path><path d="M657.248 588.068l-88.291-30.697c-0.093-0.87-0.147-1.831-0.292-2.67l88.218 30.682c0.164 0.867 0.218 1.779 0.365 2.685" fill="#858585" p-id="2166"></path><path d="M657.211 585.508c0.037 0.436 0.179 0.835 0.231 1.324l0.334 0.109 0.036-1.215-0.601-0.218z" fill="#949494" p-id="2167"></path><path d="M620.89 557.137c20.523-4.36 37.081 12.643 36.887 37.979-0.185 25.248-16.876 49.35-37.465 53.709-20.575 4.359-37.192-12.643-36.989-37.868 0-1.35 0.091-2.675 0.195-4.035l0.02 0.708a63.45 63.45 0 0 1 1.094-8.736c4.337-20.503 18.99-38.074 36.258-41.757z" fill="#0073BC" p-id="2168"></path><path d="M620.89 556.663c3.016-0.636 5.902-0.709 8.717-0.432l-1.798 0.27c-2.285-0.054-4.557 0.106-6.954 0.636-0.436 0.072-0.796 0.402-1.271 0.492l-1.671 0.271c1.017-0.343 1.944-1.033 2.977-1.237z" fill="#FCFCFC" p-id="2169"></path><path d="M619.583 557.629c-16.65 4.321-30.726 21.309-34.952 41.264 3.851-19.488 17.267-35.98 33.281-40.992l1.671-0.272z" fill="#FCFCFC" p-id="2170"></path><path d="M620.89 553.321c19.76-4.178 35.884 11.442 36.865 35.218l0.021-1.598c0.036 0.689 0.036 1.383 0.036 2.036l-0.149 2.887c-0.927-23.775-17.014-39.429-36.773-35.201-17.412 3.67-32.051 21.545-36.259 42.229a63.624 63.624 0 0 0-1.094 8.736l-0.02-0.708-0.16-2.068c0-0.856 0.056-1.656 0.073-2.506l0.159 1.978c1.235-24.248 17.529-46.785 37.301-51.003z" fill="#FCFCFC" p-id="2171"></path><path d="M633.604 557.371c-1.348-0.328-2.601-1.014-3.997-1.14l-1.798 0.27c0.055 0 0.092 0.037 0.109 0.037 1.98 0.035 3.832 0.401 5.686 0.833z m15.414 10.154c-1.377-1.834-2.978-3.326-4.629-4.74 1.651 1.381 3.252 2.924 4.629 4.74z m3.653 5.538c0.271 0.547 0.49 1.056 0.742 1.587 0.182 0.38 0.382 0.776 0.527 1.104-0.472-1.124-0.979-2.235-1.598-3.309 0.144 0.205 0.221 0.402 0.329 0.618z m-16.253-14.887c0.308 0.07 0.546 0.285 0.907 0.358 0.505 0.239 1.036 0.527 1.549 0.784 0.722 0.308 1.519 0.561 2.209 0.961-1.503-0.889-3.05-1.524-4.665-2.103z" fill="#FCFCFC" p-id="2172"></path><path d="M620.929 547.838c20.573-4.415 37.06 12.53 36.884 37.889l-0.036 1.215-0.021 1.598c-0.981-23.775-17.105-39.396-36.865-35.218-19.771 4.218-36.065 26.755-37.3 51.003l-0.159-1.978-0.018-0.818c0.123-25.34 16.977-49.334 37.515-53.691z" fill="#D7D7D7" p-id="2173"></path><path d="M499.134 579.203c19.81-4.174 35.901 11.444 36.918 35.184l0.075-1.6c0.018 0.709 0.018 1.398 0.018 2.109l-0.093 2.813c0-0.307-0.057-0.618-0.057-0.924v-0.546c-1.683-22.887-17.486-37.85-36.861-33.712-19.359 4.108-35.283 25.753-37.227 49.461 0 0.215-0.036 0.433-0.036 0.635 0 0.309-0.038 0.599-0.073 0.889l-0.09-2.813c0.035-0.71 0.035-1.4 0.053-2.108l0.073 1.632c1.325-24.283 17.543-46.747 37.3-51.02z" fill="#FCFCFC" p-id="2174"></path><path d="M499.134 582.528c0.854-0.201 1.67-0.127 2.507-0.233l-9.554 2.538a34.671 34.671 0 0 1 7.047-2.305z" fill="#FCFCFC" p-id="2175"></path><path d="M427.567 828.068l-88.236-30.675c-11.966-4.157-20.374-16.963-20.828-33.964l88.217 30.658c0.493 16.964 8.899 29.826 20.847 33.981" fill="#858585" p-id="2176"></path><path d="M406.721 794.088l-88.217-30.658c-0.036-0.599-0.036-1.198-0.036-1.797l88.253 30.638v1.817" fill="#8A8A8A" p-id="2177"></path><path d="M807.696 365.102c-2.8-0.308-5.721-0.09-8.808 0.51l-354.141 75.319c-19.814 4.214-36.009 27.333-36.174 51.805l-1.744 281.899-0.109 17.636c-0.163 24.354 15.816 40.794 35.629 36.603l303.293-64.514 50.266 32.234-3.919-42.085 4.555-0.955c19.758-4.183 35.993-27.47 36.14-51.804l1.814-299.577c0.181-20.743-11.297-35.582-26.802-37.071zM536.127 612.787c0.018 0.709 0.018 1.381 0.018 2.109v0.018l-0.093 2.796c0-0.307-0.057-0.618-0.057-0.906 0.057 1.345 0.132 2.739 0.132 4.213-0.132 25.192-16.983 49.334-37.556 53.67-20.575 4.397-37.045-12.621-36.9-37.849 0-1.437 0.072-2.818 0.2-4.214 0 0.309-0.038 0.599-0.073 0.889v-0.111l-0.09-2.702c0-0.71 0.035-1.4 0.053-2.124l-0.018-1.163c0.128-25.376 16.87-49.314 37.445-53.694 20.555-4.376 37.117 12.572 36.956 37.873l-0.018 1.179v0.256-0.24m121.687-23.775l-0.149 2.853c-0.018-1.346-0.31-2.507-0.452-3.796 0.289 2.271 0.565 4.594 0.565 7.047-0.021 9.498-2.472 18.799-6.524 26.956-1.326 2.705-2.903 5.25-4.521 7.738-3.429 4.827-7.427 9.063-11.911 12.329-2.231 1.652-4.543 3.054-7.012 4.18-2.432 1.088-4.92 1.959-7.497 2.506a34.726 34.726 0 0 1-7.501 0.689 27.27 27.27 0 0 1-13.296-4.107 28.164 28.164 0 0 1-5.464-4.413c-3.36-3.43-6.028-7.771-7.881-12.875-1.871-5.049-2.884-10.824-2.848-17.162 0-1.35 0.091-2.675 0.195-4.035l-0.16-2.068c0-0.856 0.056-1.656 0.073-2.488l-0.073-0.836c0.18-25.3 17.033-49.333 37.571-53.69 20.573-4.359 37.06 12.53 36.884 37.889l-0.036 1.215c0.037 0.687 0.037 1.38 0.037 2.068m121.732-25.863l-0.104 2.833c-0.017-0.327-0.072-0.601-0.072-0.889a60.95 60.95 0 0 1 0.144 4.157c-0.144 25.211-16.87 49.351-37.427 53.692-20.591 4.356-37.17-12.664-36.989-37.871 0-1.454 0.039-2.853 0.183-4.267-0.021 0.341-0.074 0.617-0.074 0.977l-0.069-2.81V575.642c0.144-25.317 16.973-49.331 37.533-53.672 20.572-4.375 37.024 12.516 36.896 37.869l-0.052 1.235c-0.002 0.675 0.031 1.385 0.031 2.075" fill="#FFFFFF" p-id="2178"></path><path d="M779.368 564.477c-0.164-1.781-0.548-3.4-0.819-5.105h0.035c0.271 1.704 0.62 3.323 0.784 5.105zM743.229 531.168c17.471-3.383 31.71 8.752 35.32 28.203h0.035c-2.632-14.84-11.402-25.556-23.13-28.443l-8.65-0.565c-0.94 0.095-1.995 0.095-2.975 0.312l-0.6 0.493zM705.313 580.262a61.088 61.088 0 0 1 1.271-8.213l0.071-0.018a56.893 56.893 0 0 0-1.342 8.231z" fill="#FCFCFC" p-id="2179"></path><path d="M709.308 563.35a58.006 58.006 0 0 0-2.651 8.682l-0.071 0.018c0.634-2.924 1.434-5.759 2.506-8.501l0.216-0.199z" fill="#FCFCFC" p-id="2180"></path><path d="M742.703 521.972c20.554-4.393 37.007 12.516 36.86 37.869l-0.052 1.235-0.053 1.582c-1.02-23.756-17.034-39.377-36.791-35.182-19.778 4.196-36.083 26.7-37.464 50.967l-0.054-1.598-0.016-1.202c0.18-25.317 17.012-49.33 37.57-53.671z" fill="#D7D7D7" p-id="2181"></path><path d="M535.995 616.275c-0.673-7.956-3.049-14.747-6.644-20.27l0.453 0.399c3.342 5.449 5.632 12.153 6.191 19.871z" fill="#FCFCFC" p-id="2182"></path><path d="M499.134 583.038c19.246-4.119 35.049 10.55 36.861 33.202v0.546c0.095 1.362 0.149 2.757 0.132 4.178-0.132 25.245-16.983 49.364-37.556 53.705-20.575 4.415-37.045-12.623-36.9-37.831 0-1.416 0.09-2.818 0.2-4.214 0-0.202 0.036-0.42 0.036-0.635 2.088-23.485 17.978-44.864 37.227-48.951z" fill="#0073BC" p-id="2183"></path><path d="M529.805 596.405l-0.453-0.399c-3.58-5.487-8.447-9.518-14.131-11.698l-1.106-0.942c6.389 2.142 11.837 6.665 15.69 13.039z" fill="#FCFCFC" p-id="2184"></path><path d="M514.114 583.365l1.106 0.942a27.524 27.524 0 0 0-5.79-1.507l3.973 0.29c0.222 0.074 0.477 0.202 0.711 0.275z" fill="#FCFCFC" p-id="2185"></path><path d="M513.404 583.091l-3.973-0.29c-1.6-0.197-3.161-0.381-4.777-0.346l-2.853-0.182c4.053-0.491 7.975-0.29 11.603 0.818z" fill="#FCFCFC" p-id="2186"></path><path d="M406.721 792.271l-88.253-30.638 0.109-17.692 88.253 30.694z" fill="#939393" p-id="2187"></path><path d="M504.654 582.455l-2.853-0.182c-0.019 0-0.105 0.021-0.16 0.021l-9.554 2.538c-16.053 7.212-28.527 26.411-30.18 47.118 2.07-23.485 17.959-44.845 37.227-48.913 1.852-0.416 3.705-0.509 5.52-0.582z" fill="#FCFCFC" p-id="2188"></path><path d="M499.188 573.718c20.61-4.376 37.151 12.532 37.011 37.873l-0.072 1.196-0.075 1.6c-1.017-23.739-17.108-39.357-36.918-35.184-19.757 4.272-35.975 26.737-37.3 51.02l-0.073-1.632-0.018-1.179c0.164-25.376 16.889-49.314 37.445-53.694z" fill="#D7D7D7" p-id="2189"></path><path d="M317.668 858.385l-88.236-30.66 5.555-65.983 88.293 30.659z" fill="#1F95FF" p-id="2190"></path><path d="M766.748 196.897c23.17-4.888 41.87 14.222 41.729 42.826l-0.727 125.378c-2.854-0.308-5.774-0.11-8.861 0.51l-354.141 75.304c-19.795 4.229-36.009 27.331-36.174 51.837l-1.726 281.883-16.707 3.543-72.473 80.207 5.612-65.983-3.814 0.819c-23.261 4.937-41.912-14.173-41.71-42.811l2.469-398.313c0.162-28.679 19.101-55.817 42.364-60.774l444.159-94.426z" fill="#46ABFF" p-id="2191"></path><path d="M776.403 196.313c2.637 0.223 5.25 0.654 7.665 1.512l-88.233-30.68c-2.415-0.798-5.049-1.308-7.739-1.49-0.74-0.089-1.613 0-2.451 0-1.342 0-2.596-0.123-3.896 0.093-1.114 0.09-2.146 0.254-3.255 0.49l-444.159 94.409c-2.995 0.639-5.92 1.689-8.753 3.034-0.869 0.397-1.615 0.979-2.45 1.418-1.944 1.087-3.851 2.158-5.664 3.5-0.11 0.075-0.235 0.13-0.347 0.223-2.015 1.508-3.831 3.234-5.683 5.086-0.235 0.199-0.488 0.395-0.726 0.62-2.125 2.207-4.106 4.698-5.958 7.276-0.563 0.803-0.999 1.695-1.561 2.506-1.217 1.89-2.377 3.797-3.432 5.836-0.543 1.064-1 2.217-1.507 3.377-0.616 1.38-1.345 2.721-1.851 4.123-0.184 0.467-0.237 0.944-0.383 1.342-0.834 2.399-1.434 4.792-2.016 7.268-0.309 1.253-0.671 2.397-0.907 3.687-0.691 3.756-1.089 7.59-1.107 11.424l-2.49 398.326c0 0.708 0 1.468 0.054 2.16 0.017 0.947 0.145 1.853 0.201 2.768 0.107 1.215 0.198 2.431 0.309 3.626 0.198 1.18 0.434 2.381 0.69 3.542 0.197 1.127 0.397 2.24 0.671 3.305 0.309 1.145 0.689 2.217 1.088 3.312 0.383 1.013 0.674 2.064 1.092 2.993 0.434 1.054 0.943 2.001 1.451 2.959 0.472 0.911 0.89 1.799 1.399 2.651 0.582 0.946 1.216 1.763 1.869 2.656 0.545 0.745 1.052 1.577 1.633 2.284a44.64 44.64 0 0 0 2.307 2.258c0.598 0.618 1.162 1.287 1.816 1.814 0.874 0.766 1.888 1.375 2.852 2.014 0.598 0.402 1.164 0.888 1.799 1.256a30.514 30.514 0 0 0 5.119 2.342l88.235 30.638c-1.779-0.597-3.467-1.38-5.118-2.321-0.437-0.256-0.838-0.618-1.29-0.91-1.165-0.723-2.288-1.448-3.379-2.38-0.507-0.435-0.944-0.958-1.472-1.435-0.906-0.834-1.813-1.707-2.632-2.667-0.51-0.581-0.981-1.291-1.416-1.928-0.709-0.981-1.47-1.887-2.088-2.999-0.436-0.705-0.837-1.56-1.289-2.377-0.511-0.997-1.072-2.068-1.617-3.234-0.346-0.906-0.636-1.816-0.944-2.737-0.419-1.165-0.837-2.313-1.128-3.528-0.309-0.997-0.488-2.103-0.689-3.179-0.273-1.198-0.563-2.379-0.688-3.688-0.166-1.158-0.22-2.341-0.327-3.504-0.11-1.671-0.253-3.304-0.253-4.974l2.469-398.313c0-3.906 0.433-7.736 1.123-11.479 0.219-1.254 0.6-2.414 0.89-3.611 0.566-2.471 1.166-4.995 2.055-7.357a59.274 59.274 0 0 1 2.179-5.358c0.506-1.221 0.98-2.379 1.56-3.522 1-1.962 2.199-3.854 3.377-5.671 0.528-0.836 1.02-1.778 1.618-2.631 1.833-2.579 3.814-5.03 5.956-7.247 0.166-0.202 0.401-0.326 0.563-0.506 1.962-1.981 4.052-3.833 6.23-5.45 1.668-1.289 3.485-2.271 5.286-3.251 0.962-0.543 1.852-1.234 2.814-1.691 2.814-1.341 5.756-2.303 8.715-2.998L766.749 196.9c2.433-0.493 4.773-0.563 7.045-0.563 0.851-0.003 1.742-0.096 2.609-0.024z" fill="#1F95FF" p-id="2192"></path></svg>