<?xml version="1.0" standalone="no"?><!DOCTYPE svg PUBLIC "-//W3C//DTD SVG 1.1//EN" "http://www.w3.org/Graphics/SVG/1.1/DTD/svg11.dtd"><svg t="1590331102061" class="icon" viewBox="0 0 1024 1024" version="1.1" xmlns="http://www.w3.org/2000/svg" p-id="2313" xmlns:xlink="http://www.w3.org/1999/xlink" width="200" height="200"><defs><style type="text/css"></style></defs><path d="M1024 512c0 282.767-229.242 512-512 512C229.233 1024 0 794.767 0 512S229.233 0 512 0c282.758 0 512 229.233 512 512z" fill="#EEF5FF" p-id="2314"></path><path d="M449.824 854.856l0.008-0.096c0.596-7.136 16.051-97.201 17.409-104.72 3.419-18.957 19.478-37.154 46.442-52.627 15.598-9.008 36.002-17.428 47.412-21.874a18.99 18.99 0 0 1 6.352-4.933l24.016-11.51 6.744-3.248a19.19 19.19 0 0 1 3.379-1.25 92.966 92.966 0 0 0 2.064-1.65 204.446 204.446 0 0 0-0.566-6.5c-13.227-12.385-23.402-29.14-29.365-48.167a18.977 18.977 0 0 1-10.885-7.731c-1.777-2.631-17.225-27.078-12.332-74.663 2.419-23.618 11.932-46.157 26.787-63.465 14.821-17.269 33.83-28.323 53.541-31.129a92.736 92.736 0 0 1 12.959-0.912c22.768 0 40.319 8.256 48.574 13.039 6.494 0.895 16.658 3.527 29.004 10.904 10.263 6.107 22.457 25.851 22.457 25.851h4.762V178.526c-0.035-12.321-11.32-22.313-23.719-22.278H219.726c-12.377 0.061-22.421 11.453-22.387 23.773v665.221c0.035 12.321 11.319 22.311 23.718 22.277h229.076c0 0.001-0.599-8.973-0.309-12.663z" fill="#FFFFFF" p-id="2315"></path><path d="M288.909 325.508h368.093v9.026H288.909zM288.909 382.017h368.093v9.026H288.909zM380.469 238.956h184.98v18.711h-184.98z" fill="#B3B3B3" p-id="2316"></path><path d="M450.133 863.156H221.045l-0.052 4.363v-4.363c-10.241 0-19.248-8.377-19.276-17.914V180.01c-0.026-10.286 8.398-19.35 18.009-19.397h505.207c10.238 0 19.247 8.376 19.274 17.914v291.649h8.758V178.514c-0.04-14.436-12.879-26.63-28.098-26.63H219.704c-14.54 0.073-26.788 12.964-26.745 28.138l-0.001 665.233c0.042 14.436 12.881 26.629 28.035 26.629h229.14v-8.728z" fill="#CCCCCC" p-id="2317"></path><path d="M563.451 438.525H288.909v9.026h264.514c3.194-3.28 6.542-6.3 10.028-9.026zM526.215 495.034H288.909v9.026h235.084a119.538 119.538 0 0 1 2.222-9.026zM522.217 551.544H288.909v9.026h234.694a130.557 130.557 0 0 1-1.386-9.026zM548.895 608.053H288.909v9.026h264.108a120.542 120.542 0 0 1-4.122-9.026zM539.102 670.607l12.615-6.046H288.909v9.026h245.767a18.979 18.979 0 0 1 4.426-2.98zM454.511 721.07H288.909v9.026h158.427c2.056-3.053 4.447-6.065 7.175-9.026zM434.145 777.58H288.909v9.026h143.696c0.528-3.106 1.043-6.128 1.54-9.026z" fill="#B3B3B3" p-id="2318"></path><path d="M691.922 659.774c-0.805-5.96 2.166-27.551 2.166-27.551h-73.557s2.951 21.591 2.16 27.551c-0.82 5.954-31.674 25.077-31.674 25.077l19.477 90.635h93.6l19.468-90.635c0 0.001-30.857-19.122-31.64-25.077z" fill="#F4F4F4" p-id="2319"></path><path d="M657.26 750.021l-50.809-77.052-6.744 3.248 51.373 195.899h6.18zM657.26 750.021l50.877-77.052 6.756 3.248-51.377 195.899h-6.256z" fill="#FFFFFF" p-id="2320"></path><path d="M693.539 635.471l-24.896-3.247H620.531s2.951 21.591 2.16 27.551c-0.113 0.495-0.398 1.161-0.906 1.897 5.967 6.072 15.768 15.039 23.066 17.016 11.234 2.94 18.26 1.849 26.529-3.813 8.216-5.646 22.159-39.404 22.159-39.404z" fill="#E8E8E8" p-id="2321"></path><path d="M678.115 872.116h-41.66l9.205-117.923h23.268z" fill="#EFBB4D" p-id="2322"></path><path d="M575.91 690.244s-31.691 11.472-52.748 23.637c-21.122 12.116-34.785 26.027-37.223 39.533-2.433 13.473-16.744 97.791-17.174 102.93-0.404 5.15 1.739 15.772 11.195 15.772h151.117L575.91 690.244z" fill="#46ABFF" p-id="2323"></path><path d="M572.119 735.469l-1.224 50.04 54.055 86.607h6.128l-46.812-139.539z" fill="#0066DB" p-id="2324"></path><path d="M599.707 676.217l51.373 195.899h-20.002S576.734 769.492 575.91 767.15c-0.885-2.349-1.758-4.754 1.018-7.555 2.867-2.795 9.828-8.243 10.711-9.297 0.914-1.096 2.045-5.292-3.119-5.292-5.104 0-3.881 0.309-8.355 0.309-4.467 0-5.428-4.321-5.428-7.013 0-2.701 4.924-50.562 4.924-50.562l24.046-11.523z" fill="#1F95FF" p-id="2325"></path><path d="M502.385 775.968l0.191 96.148h25.356z" fill="#0066DB" p-id="2326"></path><path d="M738.709 690.244s31.658 11.472 52.736 23.637c21.096 12.116 34.76 26.027 37.204 39.533 2.424 13.473 16.755 97.791 17.161 102.93 0.406 5.15-1.737 15.772-11.193 15.772H683.5l55.209-181.872z" fill="#46ABFF" p-id="2327"></path><path d="M742.52 735.469l1.165 50.04-54.06 86.607H683.5l46.836-139.539z" fill="#0066DB" p-id="2328"></path><path d="M714.893 676.217l-51.377 195.899H683.5s54.344-102.624 55.209-104.966c0.846-2.349 1.717-4.754-1.061-7.555-2.852-2.795-9.834-8.243-10.708-9.297-0.895-1.096-2.056-5.292 3.125-5.292 5.096 0 3.872 0.309 8.363 0.309 4.507 0 5.432-4.321 5.432-7.013 0-2.701-4.921-50.562-4.921-50.562l-24.046-11.523z" fill="#1F95FF" p-id="2329"></path><path d="M812.24 775.968l-0.187 96.148h-25.407z" fill="#0066DB" p-id="2330"></path><path d="M662.672 764.558a7.15 7.15 0 0 1-10.203 0l-16.354-16.308a7.178 7.178 0 0 1 0-10.234l16.354-16.313c2.803-2.785 7.392-2.785 10.203 0l16.387 16.313c2.803 2.83 2.803 7.412 0 10.234l-16.387 16.308z" fill="#F6CE5C" p-id="2331"></path><path d="M727.885 558.338c0 50.459-31.637 91.475-70.625 91.475-38.953 0-70.553-41.016-70.553-91.475 0-50.521 31.6-91.504 70.553-91.504 38.988-0.001 70.625 40.982 70.625 91.504z" fill="#F3F3F3" p-id="2332"></path><path d="M657.26 466.833c-38.953 0-70.553 40.983-70.553 91.504 0 13.373 2.254 26.165 6.256 37.641 13.01-5.299 33.867-14.655 50.002-26.189 25.416-18.23 31.677-37.675 31.677-37.675s8.905 10.696 24.858 25.226c8.986 8.202 19.661 13.783 27.299 17.102a120.633 120.633 0 0 0 1.086-16.104c0-50.522-31.637-91.505-70.625-91.505z" fill="#E6E6E6" p-id="2333"></path><path d="M578.578 579.914s37.016-12.965 62.453-31.607c25.451-18.615 31.383-39.904 31.383-39.904s9.254 12.42 25.198 27.238c15.938 14.856 35.425 27.251 35.425 27.251s6.742-31.299 3.482-51.529c-3.213-20.261-9.482-41.575-24.896-50.727-15.382-9.191-25.404-8.641-25.404-8.641s-22.416-16.178-52.727-11.888c-30.287 4.312-59.779 35.625-64.088 77.716-4.33 42.105 9.174 62.091 9.174 62.091z" fill="#2763AB" p-id="2334"></path></svg>