<?xml version="1.0" standalone="no"?><!DOCTYPE svg PUBLIC "-//W3C//DTD SVG 1.1//EN" "http://www.w3.org/Graphics/SVG/1.1/DTD/svg11.dtd"><svg t="1590331186602" class="icon" viewBox="0 0 1024 1024" version="1.1" xmlns="http://www.w3.org/2000/svg" p-id="2455" xmlns:xlink="http://www.w3.org/1999/xlink" width="200" height="200"><defs><style type="text/css"></style></defs><path d="M1024 512c0 282.767-229.242 512-512 512C229.233 1024 0 794.767 0 512S229.233 0 512 0c282.758 0 512 229.233 512 512z" fill="#EEF5FF" p-id="2456"></path><path d="M629.82 192.885l-256.767-44.417c-5.993-1.048-12.025 0.292-17.013 3.838-4.982 3.492-8.289 8.734-9.336 14.724l-101.44 586.376c-1.035 6.003 0.341 12.056 3.843 17.023 3.505 4.971 8.744 8.293 14.741 9.325l405.726 70.189c5.991 1.033 12.043-0.344 17.012-3.838 4.982-3.492 8.291-8.732 9.337-14.737l86.017-497.229-152.12-141.254z" fill="#B3B3B3" p-id="2457"></path><path d="M625.56 195.707l-254.977-44.121c-9.073-1.563-17.745 4.514-19.312 13.604L249.836 751.567c-1.576 9.089 4.524 17.736 13.609 19.312l405.729 70.201c9.069 1.563 17.734-4.537 19.309-13.618l85.459-493.983L625.56 195.707z" fill="#FFFFFF" p-id="2458"></path><path d="M772.506 337.789L654.053 227.794l-314.358 0.317-7.334 42.391-20.012 203.509 325.674 337.856 58.508-34.907z" fill="#BFBFBF" p-id="2459"></path><path d="M894.681 415.987l-25.836-119.145-2.256-1.396-278.808-157.424c-10.195-5.761-23.195-2.158-28.963 8.056L285.936 629.443c-5.766 10.2-2.142 23.202 8.05 28.963l334.456 188.827a21.058 21.058 0 0 0 16.16 1.961c5.474-1.522 10.033-5.075 12.805-10.017L895.03 418.294l-0.349-2.307z" fill="#CCCCCC" p-id="2460"></path><path d="M863.794 300.388L584.989 142.967c-7.466-4.215-16.994-1.59-21.224 5.907L290.877 632.231c-4.225 7.493-1.576 17.007 5.91 21.231L631.228 842.29c7.486 4.223 17.014 1.586 21.238-5.898l236.662-419.208-25.334-116.796z" fill="#FFFFFF" p-id="2461"></path><path d="M729.918 699.996l22.291-463.39-42.555-24.993-185.078 6.756-177.74 314.566L661.02 799.967z" fill="#CCCCCC" p-id="2462"></path><path d="M725.469 822.956c0 20.671-16.754 37.421-37.416 37.421H251.426c-20.669 0-37.419-16.75-37.419-37.421V279.534c0-20.67 16.75-37.42 37.419-37.42h436.627c20.662 0 37.416 16.75 37.416 37.42v543.422z" fill="#1F95FF" p-id="2463"></path><path d="M691.727 245.614H248.796c-15.228 0-27.617 12.384-27.617 27.616v6.916c0-15.23 12.39-27.621 27.617-27.621h442.931c15.23 0 27.616 12.391 27.616 27.621v-6.916c0-15.232-12.386-27.616-27.616-27.616z" fill="#FFFFFF" opacity=".5" p-id="2464"></path><path d="M658.911 374.925H280.563c-9.213 0-16.704 7.49-16.704 16.703v319.231c0 9.215 7.491 16.704 16.704 16.704h378.349c9.216 0 16.707-7.489 16.707-16.704V391.628c-0.001-9.213-7.492-16.703-16.708-16.703z" fill="#FFFFFF" p-id="2465"></path><path d="M884.77 418.239l-24.965-115.127-46.221 50.916c-6.004 8.486-3.959 20.275 4.502 26.293l66.572 38.122 0.112-0.204z" fill="#999999" p-id="2466"></path><path d="M884.77 418.239l-24.965-115.127-35.066 49.787c-6.004 8.484-3.967 20.275 4.504 26.292l55.416 39.252 0.111-0.204z" fill="#E6E6E6" p-id="2467"></path><path d="M302.561 443.215h21.669c5.897 0 10.382 1.384 13.458 4.148 3.077 2.767 4.615 6.796 4.615 12.092 0 5.599-1.538 9.854-4.615 12.757-3.076 2.91-7.561 4.362-13.458 4.362-4.181-0.021-7.798 0-10.852 0.07v18.465H302.56v-51.894z m10.817 24.428h9.019c3.03 0 5.301-0.67 6.818-2.015 1.515-1.34 2.272-3.363 2.272-6.068 0-2.472-0.758-4.323-2.272-5.56-1.518-1.236-3.788-1.854-6.818-1.854h-9.019v15.497zM350.688 443.215H376.796c4.931 0 8.907 1.324 11.926 3.972 3.019 2.649 4.527 6.138 4.527 10.467 0 4.988-1.678 8.636-5.038 10.945a14.204 14.204 0 0 1-3.027 1.55c0.631 0.262 1.208 0.541 1.725 0.849 2.959 1.764 4.496 4.73 4.616 8.896l0.244 8.508c0.048 1.689 0.225 2.893 0.528 3.599 0.305 0.704 0.894 1.271 1.762 1.695v1.375h-11.95c-0.28-0.54-0.528-1.7-0.739-3.475a54.185 54.185 0 0 1-0.354-5.736l-0.068-4.801c-0.047-2.331-0.734-3.99-2.059-4.98-1.326-0.986-3.526-1.479-6.605-1.479h-10.779v20.511H350.689v-51.896z m10.816 22.664h12.542c2.798 0 4.894-0.57 6.29-1.713 1.396-1.142 2.095-2.865 2.095-5.174 0-2.28-0.661-3.993-1.987-5.134-1.328-1.141-3.319-1.712-5.972-1.712h-12.968v13.733zM407.201 489.211c-4.485-4.871-6.729-11.459-6.729-19.769 0-8.473 2.244-15.196 6.729-20.173 4.486-4.977 10.533-7.467 18.146-7.467 7.655 0 13.72 2.49 18.197 7.467 4.476 4.977 6.711 11.7 6.711 20.173 0 8.31-2.235 14.897-6.711 19.769-4.478 4.869-10.542 7.307-18.197 7.307-7.613 0-13.659-2.438-18.146-7.307z m28.503-6.652c2.49-3.167 3.736-7.561 3.736-13.185 0-5.745-1.246-10.237-3.736-13.485-2.49-3.249-5.941-4.871-10.357-4.871-4.393 0-7.836 1.622-10.323 4.871-2.489 3.248-3.738 7.74-3.738 13.485 0 5.624 1.242 10.018 3.721 13.185 2.479 3.166 5.925 4.746 10.341 4.746s7.866-1.58 10.356-4.746zM477.56 443.215h10.816v37.313c0 5.272-1.41 9.254-4.225 11.949-2.821 2.694-6.979 4.04-12.474 4.04-5.852 0-10.134-1.481-12.858-4.449-2.726-2.961-3.994-7.539-3.808-13.731v-3.104h10.288v3.104c-0.094 3.154 0.369 5.493 1.393 7.008 1.021 1.519 2.647 2.28 4.88 2.28 2.138 0 3.669-0.553 4.6-1.662 0.924-1.108 1.389-2.915 1.389-5.435v-37.313zM499.049 495.109v-51.895h38.126v9.214h-27.306v11.015h25.33v8.93h-25.33v13.52h28.503V495.109h-39.323zM591.043 476.925c-0.658 6.003-2.998 10.771-7.03 14.299-4.03 3.528-9.151 5.294-15.38 5.294-7.281 0-13.06-2.438-17.35-7.307-4.284-4.871-6.434-11.459-6.434-19.769 0-8.473 2.149-15.196 6.434-20.173 4.29-4.977 10.068-7.467 17.35-7.467 6.158 0 11.251 1.667 15.292 4.996 4.04 3.331 6.414 7.844 7.118 13.537h-10.815c-0.355-2.801-1.56-5.025-3.619-6.672-2.058-1.648-4.675-2.473-7.847-2.473-4.027 0-7.173 1.606-9.459 4.82-2.279 3.212-3.423 7.666-3.423 13.362 0 5.552 1.138 9.9 3.405 13.042 2.272 3.139 5.425 4.714 9.477 4.714 3.172 0 5.789-0.921 7.847-2.753 2.06-1.837 3.264-4.32 3.619-7.452h10.815zM610.455 452.429h-15.642v-9.214h42.102v9.214h-15.642v42.681H610.454v-42.681z" fill="#808080" p-id="2468"></path><path d="M302.561 559.392h334.354v10.131H302.561zM302.561 608.662h334.354v10.131H302.561zM302.561 657.925h334.354v10.134H302.561z" fill="#B3B3B3" p-id="2469"></path><path d="M644.553 389.283c9.213 0 16.706 7.493 16.706 16.707V696.5c0 9.213-7.493 16.706-16.706 16.706H294.922c-9.212 0-16.705-7.493-16.705-16.706V405.99c0-9.214 7.493-16.707 16.705-16.707h349.631m0-7H294.922c-13.071 0-23.705 10.635-23.705 23.707V696.5c0 13.071 10.634 23.706 23.705 23.706h349.631c13.071 0 23.706-10.635 23.706-23.706V405.99c0-13.072-10.635-23.707-23.706-23.707z" fill="#1F95FF" p-id="2470"></path></svg>