<?xml version="1.0" standalone="no"?><!DOCTYPE svg PUBLIC "-//W3C//DTD SVG 1.1//EN" "http://www.w3.org/Graphics/SVG/1.1/DTD/svg11.dtd"><svg t="1590498158301" class="icon" viewBox="0 0 1292 1024" version="1.1" xmlns="http://www.w3.org/2000/svg" p-id="17722" xmlns:xlink="http://www.w3.org/1999/xlink" width="252.34375" height="200"><defs><style type="text/css"></style></defs><path d="M271.243221 358.070034h746.429821c12.436201 0 22.515526 10.230313 22.515525 22.846961v514.314415c0 12.616649-10.079325 22.846961-22.515525 22.846961H271.243221c-12.436201 0-22.515526-10.230313-22.515526-22.846961V380.916995c0-12.616649 10.079325-22.846961 22.515526-22.846961z" fill="#50BEF9" opacity=".8" p-id="17723"></path><path d="M257.783252 419.820171h773.349758v497.153415H257.783252z" fill="#4BBCFF" opacity=".7" p-id="17724"></path><path d="M994.306831 419.820171h44.191415v489.788179h-44.191415z" fill="#3098EF" p-id="17725"></path><path d="M989.022274 942.711403H296.204005A24.765605 24.765605 0 0 1 272.513724 916.973586h740.206196a24.769288 24.769288 0 0 1-23.697646 25.737817z" fill="#BBE2FC" p-id="17726"></path><path d="M279.87896 360.898284a29.460943 29.460943 0 0 0-29.460943 29.460943v489.78818a29.460943 29.460943 0 0 0 29.460943 29.460943h729.158343a29.460943 29.460943 0 0 0 29.460943-29.460943V390.359227a29.460943 29.460943 0 0 0-29.460943-29.460943H279.87896z m0-14.730471h729.158343c24.404709 0 44.191415 19.786706 44.191414 44.191414v489.78818c0 24.404709-19.786706 44.191415-44.191414 44.191415H279.87896c-24.404709 0-44.191415-19.786706-44.191415-44.191415V390.359227C235.687545 365.954519 255.474251 346.167813 279.87896 346.167813z" fill="#1B7BBA" p-id="17727"></path><path d="M276.196342 408.809143v500.766064c-14.214905 0-25.737816-8.057568-25.737817-17.993271V408.809143H276.196342z" fill="#FFFFFF" p-id="17728"></path><path d="M287.362039 382.588904m-8.978222 0a8.978222 8.978222 0 1 0 17.956445 0 8.978222 8.978222 0 1 0-17.956445 0Z" fill="#FF877D" p-id="17729"></path><path d="M320.903323 382.588904m-8.915618 0a8.915618 8.915618 0 1 0 17.831236 0 8.915618 8.915618 0 1 0-17.831236 0Z" fill="#FFD677" p-id="17730"></path><path d="M354.451972 382.588904m-8.978222 0a8.978222 8.978222 0 1 0 17.956445 0 8.978222 8.978222 0 1 0-17.956445 0Z" fill="#B3EF96" p-id="17731"></path><path d="M1215.142378 575.263472a10.900549 10.900549 0 0 1-3.115495-10.826897c0.847002-3.119177 14.936698-51.608207 16.144597-55.625943a11.283541 11.283541 0 0 1 18.35785-5.004678 32645.067144 32645.067144 0 0 1 42.423759 38.980511 10.889501 10.889501 0 0 1-4.861056 18.740842l-58.244285 16.118819a10.889501 10.889501 0 0 1-10.70537-2.382654z m58.855599-26.227605a54866.771588 54866.771588 0 0 0-33.301913-30.591507c-3.005016 10.281869-9.38331 32.226589-12.57614 43.289174l45.878053-12.697667z" fill="#FFD677" p-id="17732"></path><path d="M1204.216051 412.454935c-22.371904 0-40.508797-18.136893-40.508797-40.508797s18.136893-40.508797 40.508797-40.508797 40.508797 18.136893 40.508797 40.508797-18.136893 40.508797-40.508797 40.508797z m0-14.730472a25.778325 25.778325 0 1 0 0-51.55665 25.778325 25.778325 0 0 0 0 51.55665z" fill="#FF877D" p-id="17733"></path><path d="M1126.833201 527.768749l-11.777012 11.777012a6.054224 6.054224 0 1 1-8.562087-8.565769l11.777012-11.777012-11.777012-11.777012a6.054224 6.054224 0 0 1 8.562087-8.562087l11.777012 11.777012 11.777012-11.777012a6.050541 6.050541 0 0 1 10.340791 4.279202c0 1.609304-0.640776 3.148638-1.775022 4.282885l-11.777012 11.777012 11.777012 11.777012a6.057906 6.057906 0 0 1-8.565769 8.565769l-11.777012-11.777012z" fill="#96D778" p-id="17734"></path><path d="M56.811746 466.574687c-9.224958 6.915956-28.787024 21.580141-38.2624 28.691276l46.669817 18.199498c-2.084362-11.754916-6.444581-36.041781-8.407417-46.890774zM13.677243 498.922803l-0.441914 0.331436a3.682618 3.682618 0 0 0 0.515566-0.460328l-0.073652 0.128892z m-6.234672 7.825563a11.047854 11.047854 0 0 1-3.045525-19.274822c1.741878-1.318377 42.140197-31.607909 48.028702-36.016003a11.416115 11.416115 0 0 1 10.837945-1.380982c3.612648 1.414125 6.26045 4.562764 7.052213 8.458973 0.777032 4.109802 10.042499 55.725374 10.60594 59.187035a11.047854 11.047854 0 0 1-15.209212 11.747551l-58.270063-22.721752z" fill="#FFD677" p-id="17735"></path><path d="M158.352569 427.185406c-22.371904 0-40.508797-18.136893-40.508796-40.508796s18.136893-40.508797 40.508796-40.508797 40.508797 18.136893 40.508797 40.508797-18.136893 40.508797-40.508797 40.508796z m0-14.730471a25.778325 25.778325 0 1 0 0-51.556651 25.778325 25.778325 0 0 0 0 51.556651z" fill="#FF877D" p-id="17736"></path><path d="M98.193323 228.276166l-11.773329-11.777012a6.054224 6.054224 0 1 1 8.562087-8.562086l11.773329 11.777012 11.773329-11.777012a6.054224 6.054224 0 1 1 8.562087 8.562086l-11.773329 11.777012 11.773329 11.777012a6.054224 6.054224 0 1 1-8.562087 8.565769l-11.773329-11.777012-11.773329 11.777012a6.054224 6.054224 0 1 1-8.562087-8.565769l11.773329-11.777012z" fill="#96D778" p-id="17737"></path><path d="M533.920673 630.303879m-20.887809 0a20.887809 20.887809 0 1 0 41.775617 0 20.887809 20.887809 0 1 0-41.775617 0Z" fill="#FFFFFF" p-id="17738"></path><path d="M754.99559 633.297847m-20.887809 0a20.887809 20.887809 0 1 0 41.775618 0 20.887809 20.887809 0 1 0-41.775618 0Z" fill="#FFFFFF" p-id="17739"></path><path d="M548.861053 520.182556s14.225953 8.558404 11.950095 17.853332c-2.275858 9.294928-32.263415 47.200114-59.750475 41.661456-27.48706-5.538657-16.744864-26.393322-17.923301-29.759235-1.178438-3.365913 41.959748-3.82624 65.723681-29.755553zM740.117814 520.182556s-13.975535 8.470021-11.736504 17.676566c2.239032 9.206545 31.69261 46.769247 58.689882 41.274781 26.997272-5.494466 16.450254-26.146587 17.606596-29.483039 1.156342-3.336452-41.215859-3.778366-64.559974-29.468308zM688.649546 740.207927a3.682618 3.682618 0 0 1-3.682618 3.682618H603.949334a3.682618 3.682618 0 0 1-3.682618-3.682618c0-14.730472 23.531928-33.143561 44.191415-33.143561s44.191415 18.413089 44.191415 33.143561z" fill="#FFFFFF" p-id="17740"></path><path d="M1142.970433 760.403404a258.063131 258.063131 0 0 0-26.360179 24.67354c-12.450931 13.625686-26.566405 6.194163-31.15863 4.931025-4.592225-1.263138-32.267098-27.155624-32.267098-27.155624v-56.712316l0.898559 1.229994-0.898559-3.682617 0.412453 0.515566 39.03575 46.367842s6.742873 0.430866 9.574806-2.467354c2.831933-2.89822 23.966477-17.26043 23.966477-17.26043-0.22464-2.268493 18.663507-25.248028 26.363862-32.038776 7.700354-6.790747 26.514849-5.785393 33.552332-2.467354 2.500498 1.141612 5.074647 2.113823 7.704036 2.912951l3.05289 5.45764-50.809079 52.882393-3.06762 2.81352zM75.066483 727.337178c4.161358 1.675591 13.577812 4.492794 13.577812 4.492794s7.240027 0.261466 9.051875 0c1.867087 0.081018 3.719444 0.368262 5.523927 0.850684a191.032121 191.032121 0 0 1-10.05723 8.138586c-38.472309 29.424117-34.616608 40.560353-33.942689 44.927938 0.220957 7.0338 3.535313 13.610956 9.051875 17.978541 8.613643 7.681941 20.364877 2.246397 20.364877 2.246397l58.840869-40.446193a240.452853 240.452853 0 0 1 24.890814 22.463969c11.754916 12.410422 25.085993 5.645453 29.416752 4.496477 4.330759-1.148977 33.942689-31.464287 33.942689-31.464287V709.358637l-0.847002 1.123199 0.847002-3.369596-0.386675 0.471375-40.343079 48.978818a14.513197 14.513197 0 0 1-9.051875-2.246397c-2.684628-2.640437-22.629687-15.732144-22.629687-15.732143 0.213592-2.065949-17.621327-23.008997-24.890814-29.214208-7.269488-6.205211-25.041802-5.269826-31.670514-2.246397-6.628712 3.023429-19.672545 6.628712-27.155624 4.492794-7.48308-2.135918-6.72446-6.536647-11.313002-2.246397s2.622024 16.291902 6.779699 17.967493z" fill="#BBE2FC" p-id="17741"></path><path d="M1141.534212 742.373307a260.957669 260.957669 0 0 0-26.901524 24.629348c-12.701349 13.599908-27.104068 6.186798-31.788358 4.927343-4.68429-1.259455-36.678874-34.484034-36.678874-34.484034V680.799935l0.916972 1.229995-0.916972-3.682618 0.416136 0.515566 43.598513 53.670474s6.882813 0.430866 9.781033-2.463672c2.89822-2.894538 24.452583-17.242017 24.452583-17.242017-0.228322-2.26481 19.0465-25.214885 26.883111-32.01668 7.836611-6.801795 27.063559-5.774345 34.248346-2.463671 2.552054 1.141612 5.177761 2.113823 7.858707 2.909268l3.115494 5.450274L1144.631293 740.207927l-3.097081 2.16538z" fill="#70C9F9" p-id="17742"></path><path d="M1084.932375 764.866737c1.08269 0.316705 4.098754 1.347838 4.651146 1.520921 6.131559 1.914961 10.863723 1.914961 15.448582-0.894876a20.549008 20.549008 0 0 0 4.260789-3.561092 268.322905 268.322905 0 0 1 27.65646-25.325363l0.36458-0.268831 2.51891-1.763974 46.496734-47.936637c-1.292599-0.493471-2.581515-1.023768-3.866749-1.601939-6.370929-2.935046-21.893163-2.518911-26.338083 1.33679-3.306991 2.872442-9.633728 9.718429-15.651126 16.884803a190.704368 190.704368 0 0 0-7.125866 8.937714 40.508797 40.508797 0 0 0-1.87077 2.706724 1.959153 1.959153 0 0 0 0.360897-0.905924c-0.294609 1.708735-1.473047 3.719444-3.343817 4.964169l-1.049546 0.699697a1070.695374 1070.695374 0 0 0-11.235668 7.623019l-0.688649 0.478741c-5.571801 3.852018-9.685285 6.849669-10.355522 7.519905-2.124871 2.124871-4.802134 3.332769-7.877119 4.010371-2.50418 0.552393-4.953121 0.68865-7.107453 0.614998l-0.460327-0.022096a7.365236 7.365236 0 0 1-5.255096-2.706724l-30.93399-38.078269v35.364179a1071.973242 1071.973242 0 0 0 14.881459 14.991938l1.524604 1.498825a327.112217 327.112217 0 0 0 10.937375 10.31133c1.56143 1.380982 2.854029 2.463671 3.818875 3.196513 0.353531 0.272514 0.644458 0.47874 0.850684 0.614997-0.033144-0.011048-0.209909-0.092065-0.574488-0.198862l-0.036826-0.011047z m46.905504-50.871684c0.040509-0.368262 0.003683-0.902241-0.095748-1.907596a7.365236 7.365236 0 0 1 0.003682 1.428856l0.092066 0.47874z m59.474279-25.678894l1.531969-5.174079-1.016403-0.983259-2.596245 1.480413-1.85604 1.914961 1.053229 1.841309c0.957481 0.331436 1.914961 0.637093 2.879807 0.920655z m-50.901145 45.855957L1144.631293 740.207927l-5.288239-5.126204 0.489788-0.508201 0.578171-0.401406z m-20.394338 37.857312a35.06957 35.06957 0 0 1-7.2879 6.021081c-8.900887 5.45764-17.73917 5.450274-27.531252 2.397384-1.005355-0.313023-3.951449-1.32206-4.264471-1.40676-3.866749-1.038498-9.589537-6.113146-21.292897-17.55504l-1.56143-1.528286a961.815093 961.815093 0 0 1-17.219921-17.404052 7.365236 7.365236 0 0 1-2.058584-5.107791V680.799935c0-0.430866 0.033144-0.847002 0.095748-1.244724-1.292599-7.321044 8.171729-11.817521 12.999642-5.833267l0.405088 0.497153 41.256368 50.790666c0.191496-0.029461 0.37931-0.066287 0.559758-0.103113 0.581854-0.128892 0.835954-0.243053 0.640775-0.047874 1.616669-1.616669 5.671232-4.573811 12.384644-9.21391l0.70338-0.486106a962.838861 962.838861 0 0 1 10.558066-7.170057c1.671909-3.178099 5.030456-7.346823 10.79007-14.203857 6.481407-7.72245 13.235329-15.028764 17.275161-18.534616 9.394358-8.156999 30.996595-8.73517 42.084957-3.623696 2.253762 1.009037 4.573811 1.867087 6.945417 2.570468a7.365236 7.365236 0 0 1 4.297615 3.402738l3.115495 5.450275a7.365236 7.365236 0 0 1-1.104785 8.783044l-51.888086 53.501072a7.365236 7.365236 0 0 1-1.06796 0.909607l-2.909268 2.036488a253.408302 253.408302 0 0 0-25.92563 23.752885z" fill="#1B7BBA" p-id="17743"></path><path d="M69.133786 700.431971c4.492794 1.841309 14.67155 4.927343 14.671549 4.927343s7.82188 0.287244 9.781034 0a26.835237 26.835237 0 0 1 5.976888 0.931702c-2.64412 2.364241-6.168385 5.280874-10.867405 8.930349-41.576756 32.274463-37.41908 44.489707-36.678874 49.299206a26.352814 26.352814 0 0 0 9.781033 19.720418c9.305975 8.42583 22.007325 2.463671 22.007324 2.463672l63.576716-44.379228a260.90243 260.90243 0 0 1 26.901523 24.647761c12.701349 13.625686 27.104068 6.190481 31.788358 4.931025 4.68429-1.259455 36.678874-34.509812 36.678874-34.509812V680.711553l-0.916972 1.233677 0.916972-3.682618-0.416136 0.515566-43.598513 53.710982s-6.882813 0.434549-9.781033-2.463671c-2.89822-2.89822-24.452583-17.256747-24.452583-17.256748 0.228322-2.26481-19.0465-25.23698-26.88311-32.038775-7.836611-6.801795-27.063559-5.78171-34.248347-2.463672-7.184788 3.318039-21.259753 7.284218-29.343099 4.927343-8.083346-2.356875-7.269488-7.17374-12.226292-2.463671-4.956804 4.710068 2.835616 17.864379 7.332093 19.702005z" fill="#70C9F9" p-id="17744"></path><path d="M56.727046 675.393852c3.65684-3.476391 7.159009-5.00836 11.54869-3.487439 1.826578 0.629728 5.358209 3.19283 5.406083 3.222291 0.68865 0.390357 1.450951 0.714428 2.408432 0.994307 4.879469 1.421491 16.369237-0.92802 24.194799-4.544351 11.15465-5.151982 32.764251-4.566446 42.162293 3.590553 4.039832 3.505852 10.793753 10.819531 17.278843 18.545663 5.755932 6.860717 9.114479 11.036806 10.79007 14.214905a1119.773623 1119.773623 0 0 1 10.558066 7.181105l0.699697 0.482423c6.717095 4.647464 10.771657 7.608289 12.388327 9.224958-0.195179-0.198861 0.055239-0.0847 0.637093 0.044191l0.552392 0.106796 41.252686-50.820127 0.416136-0.515566c4.824229-5.980571 14.288557-1.484095 12.999641 5.836949 0.062605 0.397723 0.095748 0.810176 0.095748 1.241043v56.682854a7.365236 7.365236 0 0 1-2.058583 5.107791l-1.454634 1.502508a1064.707437 1064.707437 0 0 1-17.326718 17.444561c-11.70336 11.452942-17.418783 16.527589-21.292896 17.566088-0.313023 0.0847-3.266482 1.09742-4.264472 1.410442-9.795764 3.063938-18.634047 3.067621-27.534934-2.397384-2.577833-1.583526-5.00836-3.590552-7.243709-5.984254a253.537194 253.537194 0 0 0-21.893164-20.501134l-59.024999 41.201129a7.365236 7.365236 0 0 1-1.086372 0.626045 27.638047 27.638047 0 0 1-3.955132 1.436221c-5.571801 1.605621-11.471355 1.926009-17.271478 0.040509a24.301595 24.301595 0 0 1-8.694661-5.004678 33.718049 33.718049 0 0 1-12.33677-24.577792l-0.114161-0.655506c-2.275858-13.736165 6.127876-28.599211 36.163308-52.492035a401.445859 401.445859 0 0 1-7.630384-2.437893 224.278795 224.278795 0 0 1-1.432539-0.482423c-2.169062-0.736524-3.955132-1.388347-5.321383-1.948105-9.828907-4.021419-18.678238-23.244684-9.611632-31.854645z m14.36221 17.172048c0.607632 0.743889 1.079007 1.148977 0.832271 1.049546 1.038498 0.423501 2.581515 0.986942 4.492794 1.638765l1.340473 0.449279a329.535379 329.535379 0 0 0 7.273171 2.327415 247.593449 247.593449 0 0 0 3.966179 0.0847c1.837626 0.018413 3.310673-0.011048 3.524265-0.044192a7.365236 7.365236 0 0 1 1.373617-0.073652c2.577833 0.110479 5.133569 0.508201 7.619336 1.189486 5.62704 1.5467 7.309997 8.705709 2.960825 12.594553-2.894538 2.585198-6.602934 5.638088-11.261446 9.258101-16.78169 13.029102-26.787363 23.325702-31.456922 31.224917-2.761963 4.676925-3.141273 7.026435-2.65885 9.935703 0 0.011048 0.158353 0.909607 0.202544 1.200534a7.365236 7.365236 0 0 1 0.081018 0.902241 18.987578 18.987578 0 0 0 7.048531 14.20754l0.313022 0.268831c1.079007 0.975894 2.246397 1.642448 3.527948 2.062266 2.581515 0.839637 5.645453 0.670236 8.632056-0.191496 0.559758-0.162035 1.01272-0.313023 1.329425-0.430866l62.93594-43.933632a7.365236 7.365236 0 0 1 8.801457 0.276197 268.455479 268.455479 0 0 1 27.704334 25.387967c1.384664 1.487778 2.791424 2.651485 4.22028 3.524266 4.577494 2.809837 9.302293 2.809837 15.430169 0.891193 0.581854-0.184131 3.951449-1.33679 4.83896-1.572478a4.168723 4.168723 0 0 0-0.821223 0.283562c0.165718-0.110479 0.47874-0.331436 0.883828-0.637093 0.964846-0.736524 2.253762-1.819213 3.815192-3.203878 2.901903-2.577833 6.617664-6.09105 10.937375-10.318695l1.528287-1.498825a947.622284 947.622284 0 0 0 14.881458-15.006668v-35.386276l-30.93399 38.104048a7.365236 7.365236 0 0 1-5.251413 2.710406l-0.467692 0.022096a28.595528 28.595528 0 0 1-7.10377-0.614997c-3.078669-0.677602-5.752249-1.8855-7.880803-4.014054-0.670236-0.670236-4.780038-3.667887-10.355521-7.527271l-0.68865-0.475057a947.1951 947.1951 0 0 0-11.231984-7.630385l-1.053229-0.699697a7.365236 7.365236 0 0 1-2.98292-4.069293 40.729754 40.729754 0 0 0-1.867088-2.703041 190.836942 190.836942 0 0 0-7.125865-8.941396c-6.02108-7.181105-12.347818-14.027092-15.651126-16.895851-4.44492-3.855701-19.970837-4.275519-26.330718-1.336791-10.760609 4.967852-25.39165 7.965503-34.495082 5.310335a27.019367 27.019367 0 0 1-3.067621-1.093737c0.626045 1.23736 1.399395 2.437893 2.187475 3.395374z m86.084876 19.462635c-0.095748 0.957481 0 1.911279 0.257783 2.802472-0.405088-0.662871-0.460327-0.799128-0.257783-2.798789z" fill="#1B7BBA" p-id="17745"></path><path d="M866.917713 412.657479A160.219657 160.219657 0 1 1 772.303894 618.265401C741.826548 535.369672 784.132463 443.433117 866.917713 412.657479z" fill="#BBE2FC" p-id="17746"></path><path d="M924.164008 542.381377m-173.830612 0a173.830612 173.830612 0 1 0 347.661224 0 173.830612 173.830612 0 1 0-347.661224 0Z" fill="#FFFFFF" p-id="17747"></path><path d="M924.164008 723.577225C824.092549 723.577225 742.96816 642.452835 742.96816 542.381377 742.96816 442.309918 824.092549 361.185528 924.164008 361.185528c100.071459 0 181.195848 81.12439 181.195848 181.195849 0 100.071459-81.12439 181.195848-181.195848 181.195848z m0-14.730472c91.936556 0 166.465377-74.528821 166.465377-166.465376 0-91.936556-74.528821-166.465377-166.465377-166.465377-91.936556 0-166.465377 74.528821-166.465377 166.465377 0 91.936556 74.528821 166.465377 166.465377 166.465376z" fill="#1B7BBA" p-id="17748"></path><path d="M924.164008 542.381377m-145.63649 0a145.63649 145.63649 0 1 0 291.27298 0 145.63649 145.63649 0 1 0-291.27298 0Z" fill="#BBE2FC" p-id="17749"></path><path d="M878.897269 414.679236a133.679029 133.679029 0 1 1-78.808023 171.56212c-25.612607-69.137468 9.670555-145.94583 78.808023-171.56212z" fill="#D9F0FF" p-id="17750"></path><path d="M881.464054 421.584145c-65.329641 24.202165-98.668381 96.775516-74.462534 162.108839a126.313794 126.313794 0 1 0 74.462534-162.108839z m147.415194 22.434508a141.044265 141.044265 0 1 1-235.694911 144.782122c-27.026733-72.95266 10.200852-153.996032 83.14983-181.026448a141.044265 141.044265 0 0 1 152.548763 36.244326z" fill="#1B7BBA" p-id="17751"></path><path d="M845.621134 567.062282c20.202842 55.865313 75.965042 89.281388 134.043608 87.020261-40.76658 20.839935-90.828088 17.043156-128.022528-9.873099-37.194441-26.916254-57.456204-72.565986-51.692908-118.731283 5.763297-46.165298 36.61627-86.475233 79.235207-103.006506-37.036088 37.312284-51.910182 93.847834-33.563379 144.590627z" fill="#70C9F9" p-id="17752"></path><path d="M939.410046 463.584402a11.784377 11.784377 0 1 1 8.204873 22.095707 11.784377 11.784377 0 0 1-8.204873-22.095707zM987.86225 504.247868a23.539294 23.539294 0 1 1 16.31768 44.158272 23.539294 23.539294 0 0 1-16.31768-44.158272z" fill="#FFFFFF" p-id="17753"></path><path d="M1076.090409 633.382547l26.470658 17.308304a8.783044 8.783044 0 1 1-9.574807 14.730472l-26.470657-17.308304a8.783044 8.783044 0 1 1 9.574806-14.730472z" fill="#1B7BBA" p-id="17754"></path><path d="M1102.767293 693.022544a30802.226229 30802.226229 0 0 1 15.573791-23.988573l0.081018-0.121526a2.320049 2.320049 0 0 1 0.081017-0.121527l0.165718-0.23937a9.843638 9.843638 0 0 1 3.034477-2.669898 12.520901 12.520901 0 0 1 4.610638-1.520921c0.854367-0.110479 1.7161-0.147305 2.577832-0.117844 0.898559 0.036826 1.793435 0.147305 2.673581 0.324071 1.863405 0.386675 3.653157 1.067959 5.30297 2.018074 51.55665 29.829205 95.011542 58.921886 139.368674 85.005869a9.725794 9.725794 0 0 1 2.014392 1.513556c0.581854 0.570806 1.093738 1.211581 1.524604 1.903914 0.861733 1.40676 1.414125 2.98292 1.624034 4.618002a13.993948 13.993948 0 0 1-2.662532 10.112469c-6.96383 9.386993-13.50416 17.897523-20.821522 27.428138a19.057548 19.057548 0 0 1-9.943068 6.429851 18.486742 18.486742 0 0 1-4.308663 0.640776c-0.471375 0.011048-0.939068 0-1.403078-0.036827a11.662851 11.662851 0 0 1-5.104108-1.509873c-43.517496-26.470657-82.416988-56.174653-129.587641-91.546198a16.940042 16.940042 0 0 1-5.973206-8.875109 14.056552 14.056552 0 0 1-0.427184-2.459989 11.659168 11.659168 0 0 1 0.044191-2.408432 10.31133 10.31133 0 0 1 1.25209-3.863066l0.150988-0.250418 0.077335-0.125209a0.600267 0.600267 0 0 1 0.040509-0.062605l0.040508-0.058922-0.007365-0.018413z" fill="#BBE2FC" p-id="17755"></path><path d="M1109.23397 656.362083l170.582544 106.390831-25.236981 30.411059-58.398954-32.749521L1101.10275 688.021549l-3.564774-20.784695L1101.10275 664.456477z" fill="#FFF9B3" p-id="17756"></path><path d="M1120.47332 652.650004l-16.520224 25.236981a2.430528 2.430528 0 0 0-0.103113 0.228322 3.678935 3.678935 0 0 0-0.176766 0.732841c-0.0847 0.762302-0.022096 1.535652 0.173083 2.246397 0.600267 2.128553 1.878135 4.003006 3.627379 5.339796 42.733098 32.491738 85.480927 62.578726 139.921067 99.058738 2.058583 1.380982 6.00635-0.011048 8.278525-3.896209 5.789075-9.972529 11.508181-19.123835 19.223265-30.911895 1.233677-1.878135 1.811848-4.109802 1.642448-6.326737a5.295605 5.295605 0 0 0-0.581854-2.036488 2.382654 2.382654 0 0 0-0.552393-0.677602 1.914961 1.914961 0 0 0-0.235687-0.165718c-7.350505-4.603272-33.64808-21.149275-33.894815-21.303944a6657.620757 6657.620757 0 0 0-35.389958-22.110438c-27.523886-17.061569-51.740781-31.663149-75.90612-45.646049a10.466 10.466 0 0 0-6.444582-1.362568 5.722788 5.722788 0 0 0-2.065948 0.662871 3.259117 3.259117 0 0 0-0.592902 0.434549c-0.073652 0.066287-0.139939 0.136257-0.066287 0.044191l-0.147305 0.184131-0.051556 0.066287a1.377299 1.377299 0 0 0-0.025778 0.044192l-0.058922 0.081017-0.033144 0.051557-0.018413 0.025778z m-15.967831 24.283183l-0.375627 0.622362 0.007365 0.003683-0.036826 0.058922c0.117844-0.173083 0.202544-0.32407 0.405088-0.684967z m-0.77335 1.189485l0.180448-0.23937-0.176765 0.23937z m4.378633-33.474996a5.92165 5.92165 0 0 1 0.184131-0.287245l0.018413-0.022095c0.257783-0.382992 0.257783-0.382992 0.405088-0.578171 0.158353-0.220957 0.158353-0.220957 0.294609-0.397723l0.368262-0.460327a17.271478 17.271478 0 0 1 1.465682-1.543017 18.155306 18.155306 0 0 1 3.365913-2.459989 20.585834 20.585834 0 0 1 7.578827-2.467354c5.413448-0.629728 10.889501 0.515567 15.584839 3.248069 24.286865 14.056552 48.625287 28.728102 76.267017 45.863323 10.742196 6.658173 21.554363 13.415777 35.467293 22.158312 0.254101 0.162035 26.54431 16.69699 33.806432 21.248705a16.424476 16.424476 0 0 1 3.513217 2.879808c0.983259 1.071642 1.830261 2.261127 2.537324 3.583187 1.274186 2.412115 2.04017 5.059917 2.257445 7.80715a24.89818 24.89818 0 0 1-4.010371 15.540647c-7.575145 11.574468-13.161676 20.515864-18.814495 30.252706-6.234672 10.661179-19.392666 15.297595-29.206842 8.713074-54.66478-36.627318-97.637248-66.876341-140.639178-99.570622a24.949736 24.949736 0 0 1-8.893522-13.099072 20.865713 20.865713 0 0 1-0.622362-7.899216c0.162035-1.340473 0.471375-2.65885 0.935385-3.977227 0.235688-0.662871 0.515567-1.307329 0.791762-1.856039 0.213592-0.434549 0.397723-0.780715 0.563441-1.042181l0.257783-0.430867 0.081018-0.128891 0.062604-0.099431c0.103113-0.162035 0.195179-0.294609 0.37931-0.537662l16.000975-24.441535z" fill="#1B7BBA" p-id="17757"></path><path d="M1141.610985 689.108576m7.365236-12.756962l11.047854-19.135444q7.365236-12.756963 20.122198-5.391727l12.756963 7.365236q12.756963 7.365236 5.391727 20.122198l-11.047854 19.135444q-7.365236 12.756963-20.122198 5.391727l-12.756963-7.365236q-12.756963-7.365236-5.391727-20.122198Z" fill="#70C9F9" p-id="17758"></path><path d="M1155.355077 680.033951a7.365236 7.365236 0 0 0 2.695676 10.060912l12.756588 7.365236a7.365236 7.365236 0 0 0 10.060912-2.695677l11.047854-19.134882a7.365236 7.365236 0 0 0-2.695676-10.060912l-12.756589-7.365236a7.365236 7.365236 0 0 0-10.060912 2.695676l-11.047853 19.134883z m-12.756589-7.365236l11.047854-19.134882a22.095707 22.095707 0 0 1 30.182736-8.087029l12.756589 7.365235a22.095707 22.095707 0 0 1 8.087028 30.182737l-11.047853 19.134882a22.095707 22.095707 0 0 1-30.182736 8.087029l-12.756589-7.365236a22.095707 22.095707 0 0 1-8.087029-30.182736z" fill="#1B7BBA" p-id="17759"></path><path d="M58.921886 1009.039033m7.365236 0l81.017594 0q7.365236 0 7.365235 7.365236l0 0q0 7.365236-7.365235 7.365236l-81.017594 0q-7.365236 0-7.365236-7.365236l0 0q0-7.365236 7.365236-7.365236Z" fill="#1B7BBA" p-id="17760"></path><path d="M206.226602 1009.039033m7.365236 0l681.28431 0q7.365236 0 7.365236 7.365236l0 0q0 7.365236-7.365236 7.365236l-681.28431 0q-7.365236 0-7.365236-7.365236l0 0q0-7.365236 7.365236-7.365236Z" fill="#1B7BBA" p-id="17761"></path><path d="M1065.237734 1009.039033H1218.946522a7.365236 7.365236 0 0 1 0 14.730472h-153.708788a7.365236 7.365236 0 0 1 0-14.730472z" fill="#1B7BBA" p-id="17762"></path><path d="M968.528506 1009.039033m7.365236 0l45.22623 0q7.365236 0 7.365236 7.365236l0 0q0 7.365236-7.365236 7.365236l-45.22623 0q-7.365236 0-7.365236-7.365236l0 0q0-7.365236 7.365236-7.365236Z" fill="#1B7BBA" p-id="17763"></path><path d="M945.946693 286.270033L902.101444 320.389487l3.546361-39.308263c-50.610218-15.216577-87.436397-62.173638-87.436396-117.689103 0-67.605499 54.605858-122.513332 122.207674-122.881593h133.553821c67.601817 0.368262 122.207675 55.276095 122.207675 122.877911 0 67.605499-54.605858 122.513332-122.207675 122.881594h-128.026211z" fill="#BBE2FC" p-id="17764"></path><path d="M944.249006 269.348403L897.501854 305.659016l3.74154-41.422086a130.990718 130.990718 0 0 1 36.936658-256.866281h143.106531a130.990718 130.990718 0 1 1 0 261.977754h-137.037577z" fill="#FFFFFF" p-id="17765"></path><path d="M941.72273 261.983168h139.600679A123.625483 123.625483 0 1 0 1081.290266 14.732202h-143.147041a123.625483 123.625483 0 0 0-34.85966 242.426736l5.844314 1.682957-2.761963 30.60992 35.360497-27.47233z m-53.081254 59.886732l4.728481-52.374192a138.352272 138.352272 0 0 1-75.582049-200.525909A138.341224 138.341224 0 0 1 938.180052 0.001731h143.066022a138.355954 138.355954 0 1 1 0.036826 276.708226h-134.511301l-58.130123 45.15626z" fill="#1B7BBA" p-id="17766"></path><path d="M902.241384 162.036918a25.778325 25.778325 0 1 1 0-51.55665 25.778325 25.778325 0 0 1 0 51.55665z m106.795919 0a25.778325 25.778325 0 1 1 0-51.55665 25.778325 25.778325 0 0 1 0 51.55665z m106.795918 0a25.778325 25.778325 0 1 1 0-51.55665 25.778325 25.778325 0 0 1 0 51.55665z" fill="#FFD677" p-id="17767"></path><path d="M902.241384 154.671682a18.413089 18.413089 0 1 0 0-36.826179 18.413089 18.413089 0 0 0 0 36.826179z m0 14.730472a33.143561 33.143561 0 1 1 0-66.287122 33.143561 33.143561 0 0 1 0 66.287122z m106.795919-14.730472a18.413089 18.413089 0 1 0 0-36.826179 18.413089 18.413089 0 0 0 0 36.826179z m0 14.730472a33.143561 33.143561 0 1 1 0-66.287122 33.143561 33.143561 0 0 1 0 66.287122z m106.795918-14.730472a18.413089 18.413089 0 1 0 0-36.826179 18.413089 18.413089 0 0 0 0 36.826179z m0 14.730472a33.143561 33.143561 0 1 1 0-66.287122 33.143561 33.143561 0 0 1 0 66.287122z" fill="#1B7BBA" p-id="17768"></path></svg>