<?xml version="1.0" standalone="no"?><!DOCTYPE svg PUBLIC "-//W3C//DTD SVG 1.1//EN" "http://www.w3.org/Graphics/SVG/1.1/DTD/svg11.dtd"><svg t="1590375398798" class="icon" viewBox="0 0 1024 1024" version="1.1" xmlns="http://www.w3.org/2000/svg" p-id="2453" xmlns:xlink="http://www.w3.org/1999/xlink" width="200" height="200"><defs><style type="text/css"></style></defs><path d="M1024 512c0 282.767-229.242 512-512 512C229.233 1024 0 794.767 0 512S229.233 0 512 0c282.758 0 512 229.233 512 512z" fill="#EEF5FF" p-id="2454"></path><path d="M508.98 502.762l141.156-81.534V231.539L508.98 313.052z" fill="#D3AE80" p-id="2455"></path><path d="M320.242 393.681L508.98 502.762v-189.71L320.242 204.036z" fill="#BF9D74" p-id="2456"></path><path d="M320.242 204.036l86.561 50.001 8.174 4.615 94.003 54.4 141.156-81.513-94.131-54.098-8.003-4.789-86.821-50.02z" fill="#F9D9A9" p-id="2457"></path><path d="M406.803 254.037l8.174 4.615 141.028-81.211-8.003-4.789z" fill="#D3AE80" p-id="2458"></path><path d="M443.537 341.482l50.042 29.033V331l-50.042-28.948z" fill="#FFFFFF" p-id="2459"></path><path d="M355.359 782.3l140.937-81.276V511.271l-140.937 81.405z" fill="#D3AE80" p-id="2460"></path><path d="M166.641 673.393L355.359 782.3V592.676L166.641 483.662z" fill="#F5CC95" p-id="2461"></path><path d="M289.85 621.17l50.065 28.927V610.58l-50.065-28.947z" fill="#FFFFFF" p-id="2462"></path><path d="M166.641 483.662l86.473 49.956 8.198 4.659 94.047 54.399 141.048-81.405-94.241-54.422-8.111-4.68-86.474-49.999z" fill="#F9D9A9" p-id="2463"></path><path d="M253.114 533.618l8.198 4.659 140.854-81.428-8.111-4.68z" fill="#D3AE80" p-id="2464"></path><path d="M355.359 592.289l140.937-81.407V321.216l-140.937 81.428z" fill="#D3AE80" p-id="2465"></path><path d="M166.641 483.316l188.718 108.973V402.644L166.641 293.606z" fill="#F5CC95" p-id="2466"></path><path d="M166.641 293.606l86.473 50.064 8.198 4.553 94.047 54.421 141.048-81.428-94.241-54.333-8.111-4.725-86.474-49.957z" fill="#F9D9A9" p-id="2467"></path><path d="M253.114 343.67l8.198 4.553 140.854-81.34-8.111-4.725z" fill="#D3AE80" p-id="2468"></path><path d="M289.85 431.204l50.065 28.73v-39.386l-50.065-28.86z" fill="#FFFFFF" p-id="2469"></path><path d="M716.291 812.629l140.919-81.471V541.426l-140.919 81.49z" fill="#D3AE80" p-id="2470"></path><path d="M527.445 703.547l188.803 109.082 0.043-189.713-188.846-109.034z" fill="#BF9D74" p-id="2471"></path><path d="M527.445 513.882l86.713 50.021 8.043 4.616 94.047 54.397 141.113-81.49-94.156-54.314-8.152-4.572-86.625-50.085z" fill="#F9D9A9" p-id="2472"></path><path d="M614.158 563.903l8.043 4.616 140.962-81.407-8.11-4.572z" fill="#D3AE80" p-id="2473"></path><path d="M650.761 651.369l49.977 28.969v-39.494l-49.977-28.862z" fill="#FFFFFF" p-id="2474"></path><path d="M716.291 621.872l140.919-81.341V350.93l-140.919 81.362z" fill="#D3AE80" p-id="2475"></path><path d="M527.445 512.879l188.803 108.993 0.043-189.58-188.846-109.103z" fill="#BF9D74" p-id="2476"></path><path d="M527.445 323.189l86.713 50.023 8.043 4.723 94.047 54.357 141.113-81.362-94.156-54.4-8.152-4.745-86.625-50.024z" fill="#F9D9A9" p-id="2477"></path><path d="M614.158 373.212l8.043 4.723 140.962-81.405-8.11-4.745z" fill="#D3AE80" p-id="2478"></path><path d="M650.761 460.744l49.977 28.967v-39.58l-49.977-28.903z" fill="#FFFFFF" p-id="2479"></path><path d="M562.496 901.368l141.092-81.385V630.382l-141.092 81.363z" fill="#D3AE80" p-id="2480"></path><path d="M373.713 792.504l188.783 108.864V711.745L373.713 602.793z" fill="#F5CC95" p-id="2481"></path><path d="M497.118 740.41l50.021 28.797V729.67l-50.021-28.883z" fill="#FFFFFF" p-id="2482"></path><path d="M373.713 602.793l86.669 49.978 7.96 4.53 94.154 54.444 141.092-81.363-94.111-54.358-8.047-4.745-86.756-49.998z" fill="#F9D9A9" p-id="2483"></path><path d="M460.382 652.771l7.96 4.53 141.135-81.277-8.047-4.745z" fill="#D3AE80" p-id="2484"></path><path d="M670.73 387.382c-112.56-11.815-213.43 69.823-225.252 182.415-11.843 112.566 69.868 213.479 182.43 225.314 112.553 11.8 213.464-69.925 225.294-182.505 11.82-112.571-69.918-213.382-182.472-225.224z m-39.168 372.906c-93.297-9.769-161.065-93.41-151.247-186.845 9.797-93.309 93.428-161.05 186.77-151.268 93.368 9.823 161.119 93.48 151.35 186.816-9.845 93.384-93.454 161.127-186.873 151.297z" fill="#125998" p-id="2485"></path><path d="M631.529 760.297c-93.297-9.769-161.065-93.41-151.248-186.845 9.796-93.309 93.427-161.05 186.769-151.268 93.369 9.823 161.119 93.481 151.35 186.817-9.843 93.383-93.451 161.126-186.871 151.296z" fill="#F7F7F7" p-id="2486"></path><path d="M816.955 780.08c4.518 5.547 3.648 13.674-1.922 18.189-5.57 4.51-13.697 3.656-18.206-1.877l-29.759-36.738c-4.563-5.602-3.7-13.736 1.908-18.229 5.531-4.51 13.711-3.67 18.266 1.899l29.713 36.756z" fill="#F3F3F3" p-id="2487"></path><path d="M977.867 960.57c8.344 10.275 6.834 25.417-3.534 33.763-10.384 8.358-25.479 6.796-33.831-3.536L790.348 805.675c-8.369-10.284-6.788-25.401 3.55-33.794 10.299-8.359 25.423-6.764 33.886 3.583L977.867 960.57z" p-id="2488"></path><path d="M773.691 583.559L582.454 474.261l0.935 191.77L719.1 743.469c21.34-10.098 40.027-24.42 55.168-41.746l-0.577-118.164z" fill="#F5CC95" p-id="2489"></path><path d="M707.561 612.705l50.792 28.967-0.181-40.047-50.789-28.787z" fill="#FFFFFF" p-id="2490"></path><path d="M814.273 563.279c-0.166-1.051-0.352-2.094-0.536-3.137l-40.046 23.416 0.576 118.164c32.003-36.622 48.165-86.642 40.006-138.443z" fill="#BF9D74" p-id="2491"></path><path d="M672.183 421.777l-89.729 52.484 87.597 50.086 8.303 4.518 95.338 54.693 40.053-23.379c-12.923-73.298-71.354-127.627-141.562-138.402z" fill="#F9D9A9" p-id="2492"></path><path d="M771.419 474.655a170.15 170.15 0 0 0-5.853-6.037l-95.349 55.73 8.136 4.518 93.066-54.211z" fill="#C2A076" p-id="2493"></path><path d="M665.586 697.697l-8.137-4.824-87.955-50.063-66.263 38.68c35.308 55.045 100.9 87.041 169.566 76.232 21.939-3.455 42.232-10.973 60.24-21.658l-67.451-38.367z" fill="#F9D9A9" p-id="2494"></path><path d="M581.275 746.826l84.311-49.129-8.137-4.824-85.361 49.805a172.37 172.37 0 0 0 9.187 4.148z" fill="#D3AE80" p-id="2495"></path><path d="M494.556 517.184c-21.193 44.358-21.368 93.201-4.81 135.623-12.63-39.859-10.912-84.447 8.531-125.155 40.657-85.159 142.614-121.204 227.698-80.625 40.772 19.505 70.126 53.053 85.359 92.098-13.824-43.465-44.654-81.353-89.094-102.555-85.034-40.605-186.978-4.589-227.684 80.614z" fill="#B7C1C3" p-id="2496"></path><path d="M660.809 372.5c-112.561-11.814-213.43 69.823-225.251 182.414-11.844 112.566 69.866 213.479 182.427 225.316 112.553 11.799 213.464-69.926 225.294-182.506 11.822-112.571-69.917-213.382-182.47-225.224zM621.64 745.406c-93.297-9.769-161.063-93.41-151.246-186.845 9.797-93.309 93.426-161.05 186.768-151.268 93.368 9.823 161.119 93.481 151.35 186.817-9.844 93.383-93.452 161.126-186.872 151.296z" fill="#1F95FF" p-id="2497"></path></svg>