<?xml version="1.0" standalone="no"?><!DOCTYPE svg PUBLIC "-//W3C//DTD SVG 1.1//EN" "http://www.w3.org/Graphics/SVG/1.1/DTD/svg11.dtd"><svg t="1590334126065" class="icon" viewBox="0 0 1024 1024" version="1.1" xmlns="http://www.w3.org/2000/svg" p-id="9870" xmlns:xlink="http://www.w3.org/1999/xlink" width="200" height="200"><defs><style type="text/css"></style></defs><path d="M907.21 462.51l-256.19-255.8c-26-25.96-68.06-25.96-94.07 0L279.61 483.63c-10.67 15.61-10.74 36.21-0.19 51.88l139.33 139.16L563.36 819.1c22.46 22.33 58.7 22.33 81.06 0l262.79-262.39c26.1-26.05 26.1-68.14 0-94.2z" fill="#38ACFF" p-id="9871"></path><path d="M297.03 553.09c-24-23.96-24-62.9 0-86.86l124.08-123.89-47.9-47.82c-23.99-23.96-62.99-23.96-86.99 0L114.16 466.23c-23.99 23.96-23.99 62.9 0 86.86L286.13 724.8c23.99 23.96 63 23.96 86.99 0l47.89-47.82-123.98-123.89z m0 0" fill="#8AD2FF" opacity=".8" p-id="9872"></path></svg>