<?xml version="1.0" standalone="no"?><!DOCTYPE svg PUBLIC "-//W3C//DTD SVG 1.1//EN" "http://www.w3.org/Graphics/SVG/1.1/DTD/svg11.dtd"><svg t="1590583264510" class="icon" viewBox="0 0 1024 1024" version="1.1" xmlns="http://www.w3.org/2000/svg" p-id="9685" xmlns:xlink="http://www.w3.org/1999/xlink" width="200" height="200"><defs><style type="text/css"></style></defs><path d="M445.76 365.44h377.28v377.28H445.76z" fill="#790001" p-id="9686"></path><path d="M925.28 911.68c-20.8 0-40.96-11.04-51.84-30.56-4.64-8.32-9.12-16.96-13.6-25.28-46.56-86.72-77.92-139.84-136.48-139.84-32.48 0-59.04-26.4-59.04-59.04 0-32.48 26.4-59.04 59.04-59.04 60 0 112.64 24.32 156.48 72.16 34.24 37.28 59.52 84.48 83.68 129.92 4.48 8.16 8.64 16.48 13.12 24.48 15.52 28.48 5.12 64.48-23.36 80-8.8 4.8-18.56 7.2-28 7.2z m0 0" fill="#4B5659" p-id="9687"></path><path d="M876.16 833.76c-2.08-12.48-95.84-193.28-166.72-234.08a58.72 58.72 0 0 0-45.12 57.28c0 32.48 26.4 59.04 59.04 59.04 58.4 0 89.92 53.12 136.48 139.84 12.16-2.4 18.56-9.44 16.32-22.08z m0 0" fill="#3D4749" p-id="9688"></path><path d="M306.88 987.84c-15.52 0-30.72-6.08-41.76-17.44-25.76-25.92-50.88-68.64-67.36-99.84a58.864 58.864 0 0 1 24.8-79.68c28.96-15.2 64.48-4.16 79.68 24.8 2.88 5.44 5.6 10.56 8.32 15.36l166.88-204.64a58.624 58.624 0 0 1 82.88-8.32 58.624 58.624 0 0 1 8.32 82.88L352.48 966.24a58.72 58.72 0 0 1-42.72 21.6h-2.88z m0 0" fill="#4B5659" p-id="9689"></path><path d="M574.56 635.04c-2.4-0.32-4.96 1.12-7.68 5.44-26.88 41.76-242.08 325.6-262.24 310.24-35.2-27.52-79.68-114.08-96.8-149.12a58.88 58.88 0 0 0-10.08 68.96c16.48 31.04 41.44 73.76 67.36 99.84 11.04 11.04 26.08 17.44 41.76 17.44h2.88c16.8-0.8 32.16-8.64 42.72-21.6l216.16-265.12c15.84-19.36 17.28-45.44 5.92-66.08z m0 0" fill="#3D4749" p-id="9690"></path><path d="M186.56 853.76c12.8 30.24 47.84 44.32 78.08 31.52 30.24-12.8 44.32-47.84 31.52-78.08a59.472 59.472 0 0 0-77.92-31.52c-30.4 12.96-44.48 47.84-31.68 78.08z m0 0" fill="#3F494C" p-id="9691"></path><path d="M231.84 859.52c-20.16 0-39.52-11.52-48.32-30.88-10.56-23.04-28.64-67.36-33.92-89.28-6.72-28.48 10.88-57.28 39.52-64 28.48-6.72 57.28 10.88 64 39.52 2.24 9.6 15.36 44.16 27.04 69.28a53.28 53.28 0 0 1-26.08 70.56c-7.2 3.36-14.72 4.8-22.24 4.8z m0 0" fill="#EAC18A" p-id="9692"></path><path d="M280.16 784.16c-11.68-25.12-24.64-59.68-27.04-69.28a53.12 53.12 0 0 0-64-39.52c-3.36 0.8-6.88 2.08-9.92 3.36-15.2 15.04-23.68 35.68-21.44 57.6 4.32 40.16 43.04 68.96 86.72 64.48 13.92-1.6 26.56-6.08 37.12-12.96-0.32-1.28-0.96-2.56-1.44-3.68z m0 0" fill="#D8AE75" p-id="9693"></path><path d="M839.36 796.96c0 26.4-12.64 49.76-32.32 64.48l-1.76 28.48-3.04 52.64c-0.96 18.56-0.64 37.44 1.12 56h-337.6c2.08-18.56 2.4-37.28 1.12-56L464 889.92l-1.76-28.48a80.672 80.672 0 0 1-24-100.32c10.08-20.16 15.52-42.24 14.24-64.8l-0.16-2.72c0-54.72 44.48-99.2 99.2-99.2h165.6c54.72 0 99.2 44.48 99.2 99.2l-0.32 2.72c-1.44 22.4 4.16 44.64 14.24 64.8 5.92 10.72 9.12 23.04 9.12 35.84z m0 0" fill="#566166" p-id="9694"></path><path d="M807.04 861.44l-1.76 28.64c-11.84 6.72-25.44 10.56-40 10.56-40.8 0-74.72-30.56-79.68-70.08a80.448 80.448 0 0 0 73.12 47.04c18.24-0.16 34.88-6.08 48.32-16.16zM583.84 830.4a80.24 80.24 0 0 1-79.68 70.08c-14.56 0-28.16-4-40-10.56l-1.76-28.64c13.44 10.08 30.08 16 48.16 16 32.48 0.16 60.32-19.04 73.28-46.88z m141.12-134.56s46.88-33.12 41.76-64.48c-7.2-44.8-45.44-50.08-75.68-48.96l-45.92 232.96c196-92.96 79.84-119.52 79.84-119.52z m-180.48 0s-46.88-33.12-41.76-64.48c7.2-44.8 45.44-50.08 75.68-48.96l45.92 232.96c-196.16-92.96-79.84-119.52-79.84-119.52z m0 0" fill="#3F494C" p-id="9695"></path><path d="M620.8 811.84l-82.56-183.36c-7.2-15.84 4.48-34.08 22.08-34.08h148.64c17.44 0 29.28 18.08 22.08 34.08l-82.56 183.52c-5.28 11.84-22.4 11.84-27.68-0.16z m0 0" fill="#FFD594" p-id="9696"></path><path d="M575.68 535.52v74.4c0 32.48 26.4 59.04 59.04 59.04 32.48 0 59.04-26.4 59.04-59.04v-74.4h-118.08z m0 0" fill="#FFD594" p-id="9697"></path><path d="M575.68 573.12c22.24 11.52 47.52 17.92 74.24 17.92h17.28c9.12 0 17.76-0.64 26.4-2.24v-53.44h-117.76v37.76z m0 0" fill="#D8AE75" p-id="9698"></path><path d="M464.16 177.92v232.96c0 89.44 72.48 162.08 162.08 162.08h17.28c89.44 0 162.08-72.48 162.08-162.08V177.92H464.16z m0 0" fill="#FFD594" p-id="9699"></path><path d="M634.72 909.28c-3.52 0-6.72-2.88-6.72-6.72v-119.04c0-3.52 2.88-6.72 6.72-6.72 3.52 0 6.72 2.88 6.72 6.72v119.04c0 3.84-3.2 6.72-6.72 6.72z m0 79.04c-3.52 0-6.72-2.88-6.72-6.72v-30.4c0-3.52 2.88-6.72 6.72-6.72 3.52 0 6.72 2.88 6.72 6.72v30.4c0 3.68-3.2 6.72-6.72 6.72z m0 0" fill="#3F494C" p-id="9700"></path><path d="M675.04 310.88c-3.36 0-6.72-1.76-8.48-4.8a10.24 10.24 0 0 1 3.2-13.92c30.4-18.56 71.2-18.56 101.6 0 4.8 2.88 6.08 9.12 3.2 13.92a10.08 10.08 0 0 1-13.92 3.2c-24.16-14.88-56.48-14.88-80.48 0-1.6 1.12-3.36 1.6-5.12 1.6z m0 0" fill="#B55D4B" p-id="9701"></path><path d="M669.6 382.72a54.464 54.464 0 0 0 69.92 32.16 54.464 54.464 0 0 0 32.16-69.92 54.208 54.208 0 0 0-41.76-34.72c-19.2-3.2-38.56 4-51.04 18.88-12.64 15.04-16.16 35.36-9.28 53.6z m0 0" fill="#F2ECF3" p-id="9702"></path><path d="M720.48 425.44c-33.92 0-61.6-27.52-61.6-61.6s27.52-61.6 61.6-61.6c33.92 0 61.6 27.52 61.6 61.6s-27.52 61.6-61.6 61.6z m0-108.8c-25.92 0-47.2 21.12-47.2 47.2a47.184 47.184 0 1 0 47.2-47.2z m0 0" fill="#8A628B" p-id="9703"></path><path d="M718.56 321.92a7.84 7.84 0 1 0 0.032 15.712 7.84 7.84 0 0 0-0.032-15.712z m22.4 14.08c-2.72 0-4.96 2.24-4.96 4.96 0 2.72 2.24 4.96 4.96 4.96 2.72 0 4.96-2.24 4.96-4.96 0-2.56-2.24-4.96-4.96-4.96z m0 0" fill="#F2ECF3" p-id="9704"></path><path d="M755.68 453.6h-24.96c-5.6 0-10.24-4.64-10.24-10.24 0-5.6 4.64-10.24 10.24-10.24h24.96c5.6 0 10.24 4.64 10.24 10.24 0.16 5.6-4.32 10.24-10.24 10.24z m0 0" fill="#FFE9CC" p-id="9705"></path><path d="M503.36 310.88c-3.36 0-6.72-1.76-8.48-4.8a10.24 10.24 0 0 1 3.2-13.92c30.4-18.56 71.2-18.56 101.6 0 4.8 2.88 6.08 9.12 3.2 13.92a10.08 10.08 0 0 1-13.92 3.2c-24.16-14.88-56.48-14.88-80.48 0-1.44 1.12-3.36 1.6-5.12 1.6z m0 0" fill="#B55D4B" p-id="9706"></path><path d="M524.32 414.4c27.04 12.96 59.52 1.44 72.48-25.76 12.96-27.04 1.44-59.52-25.76-72.48a54.32 54.32 0 0 0-72.48 25.76 54.24 54.24 0 0 0 25.76 72.48z m0 0" fill="#F2ECF3" p-id="9707"></path><path d="M548.96 425.44c-33.92 0-61.6-27.52-61.6-61.6s27.52-61.6 61.6-61.6c33.92 0 61.6 27.52 61.6 61.6-0.16 34.08-27.84 61.6-61.6 61.6z m0-108.8c-25.92 0-47.2 21.12-47.2 47.2a47.184 47.184 0 1 0 94.4 0c-0.16-25.92-21.28-47.2-47.2-47.2z m0 0" fill="#8A628B" p-id="9708"></path><path d="M550.72 321.92a7.84 7.84 0 1 1-7.84 7.84c0-4.16 3.52-7.84 7.84-7.84z m-22.4 14.08c2.72 0 4.96 2.24 4.96 4.96 0 2.72-2.24 4.96-4.96 4.96s-4.96-2.24-4.96-4.96c0-2.56 2.24-4.96 4.96-4.96z m0 0" fill="#F2ECF3" p-id="9709"></path><path d="M513.76 453.6h24.96c5.6 0 10.24-4.64 10.24-10.24 0-5.6-4.64-10.24-10.24-10.24h-24.96c-5.6 0-10.24 4.64-10.24 10.24-0.16 5.6 4.32 10.24 10.24 10.24z m0 0" fill="#FFE9CC" p-id="9710"></path><path d="M666.08 371.04h-63.04c-4 0-7.2-3.2-7.2-7.2s3.2-7.2 7.2-7.2h63.04c4 0 7.2 3.2 7.2 7.2s-3.04 7.2-7.2 7.2z m144.64 0h-35.84c-4 0-7.2-3.2-7.2-7.2s3.2-7.2 7.2-7.2h35.84c4 0 7.2 3.2 7.2 7.2 0.16 4-3.04 7.2-7.2 7.2z m-316.16 0h-35.84c-4 0-7.2-3.2-7.2-7.2s3.2-7.2 7.2-7.2h35.84c4 0 7.2 3.2 7.2 7.2s-3.2 7.2-7.2 7.2z m0 0" fill="#8A628B" p-id="9711"></path><path d="M634.72 695.04c-26.4 0-51.52-5.92-73.92-16.64l60 133.28c5.28 12 22.4 12 27.68 0l60-133.28c-22.4 10.88-47.2 16.64-73.76 16.64z m0 0" fill="#FEF9FB" p-id="9712"></path><path d="M602.56 843.2c0 3.36 1.76 6.4 4.64 8.16 2.88 1.76 6.56 1.76 9.44 0a9.536 9.536 0 0 0 0-16.32 9.104 9.104 0 0 0-9.44 0c-2.88 1.6-4.64 4.8-4.64 8.16z m0 0M602.56 906.56c0 3.36 1.76 6.4 4.64 8.16 2.88 1.76 6.56 1.76 9.44 0a9.536 9.536 0 0 0 0-16.32 9.104 9.104 0 0 0-9.44 0c-2.88 1.6-4.64 4.8-4.64 8.16z m0 0" fill="#3F494C" p-id="9713"></path><path d="M498.08 66.72a122.24 122.24 0 0 0-122.24 122.24v468a85.6 85.6 0 0 0 85.6 85.6h45.76l-24.32-32.8A96.512 96.512 0 0 1 464 652.32V251.52c0-39.52 32.16-71.68 71.68-71.68h113.28V66.72h-150.88z m0 0" fill="#B55D4B" p-id="9714"></path><path d="M465.44 101.6a8.592 8.592 0 0 1-2.88-16.64c6.4-2.24 12.8-4 19.52-5.12 4.8-0.8 9.28 2.4 9.92 7.04 0.8 4.48-2.4 9.12-7.04 9.76-5.6 0.96-11.04 2.4-16.64 4.32-0.96 0.48-1.76 0.64-2.88 0.64z m-69.28 98.88c-4.8 0-8.48-4-8.48-8.48 0-38.24 19.2-73.92 51.52-95.04 4-2.56 9.44-1.6 12 2.4 2.56 4 1.6 9.44-2.4 12a95.84 95.84 0 0 0-43.52 80.48c-0.64 4.8-4.48 8.64-9.12 8.64z m0 0" fill="#C8816F" p-id="9715"></path><path d="M723.36 24.48h-143.04c-29.12 0-52.48 23.52-52.48 52.48v61.76c0 29.12 23.52 52.48 52.48 52.48h136.96c48.64 0 88.16 39.52 88.16 88.16v372.8a97.6 97.6 0 0 1-18.88 57.44l-24.32 32.8h45.76a85.6 85.6 0 0 0 85.6-85.6V194.56c-0.16-93.92-76.16-170.08-170.24-170.08z m0 0" fill="#AA4536" p-id="9716"></path><path d="M829.12 96.96c-2.24 0-4.48-0.8-6.08-2.56a140.416 140.416 0 0 0-99.68-41.12c-4.8 0-8.48-4-8.48-8.48 0-4.8 4-8.48 8.48-8.48 42.24 0 81.92 16.48 111.84 46.08 3.36 3.36 3.36 8.96 0 12.16-1.76 1.6-4 2.4-6.08 2.4zM686.4 53.28h-25.76c-4.8 0-8.48-4-8.48-8.48 0-4.8 4-8.48 8.48-8.48h25.76c4.8 0 8.48 4 8.48 8.48 0.16 4.48-3.84 8.48-8.48 8.48z m0 0" fill="#BE6E5C" p-id="9717"></path><path d="M805.12 272.8c-3.04-54.4-20.96-155.52-111.52-155.52h-109.92c-69.12 0-61.6 74.08-1.12 74.08h134.72c46.24 0 84.32 35.84 87.84 81.44z m0 0" fill="#90050E" p-id="9718"></path><path d="M832 975.84c-16.16 0-27.68-0.8-29.76-0.96a58.992 58.992 0 1 1 9.44-117.6c17.92 1.44 39.2 0.64 54.56-1.44-1.28-21.92 10.08-43.52 30.56-54.72 28.48-15.52 64.48-5.12 80 23.36 25.44 46.56 11.04 81.44 0.32 97.92-19.84 30.56-56.96 47.68-113.28 52.16-11.36 0.8-22.4 1.28-31.84 1.28z m0 0" fill="#4B5659" p-id="9719"></path><path d="M866.24 853.76c7.84-3.36 11.84-9.92 10.08-20-0.16-1.12-1.44-4.32-3.2-8.48-4.8 8.8-7.2 18.56-6.88 28.48z m18.72 70.4a421.12 421.12 0 0 1-61.76 0.32 58.88 58.88 0 0 1-53.92-53.6c-11.84 9.76-19.68 24.16-20.96 40.48a59.088 59.088 0 0 0 54.08 63.52c1.92 0.16 13.44 0.96 29.76 0.96 9.44 0 20.48-0.32 32-1.12 56.48-4.64 93.44-21.6 113.28-52.16 5.6-8.64 12.32-22.72 13.6-40.64-21.12 24.32-56 38.08-106.08 42.24z m0 0" fill="#3D4749" p-id="9720"></path><path d="M314.72 497.6c-7.84 2.08-15.52 6.4-21.92 12.96l-79.68 82.72-181.28 47.52 79.68-82.72c6.4-6.72 14.08-10.88 21.92-12.96l181.28-47.52z m0 0" fill="#DFE8E9" p-id="9721"></path><path d="M372.32 531.36l63.36 242.88-192.48 50.24-58.4-223.68 28.32-7.36 79.68-82.72c6.4-6.72 14.08-10.88 21.92-12.96 23.84-6.4 50.56 6.88 57.6 33.6z m0 0" fill="#CAD1D3" p-id="9722"></path><path d="M146.24 722.08c4.16 40.16 43.04 68.96 86.72 64.48 43.68-4.64 75.68-40.96 71.36-81.12-4.16-40.16-43.04-68.96-86.72-64.48-43.52 4.64-75.52 40.96-71.36 81.12z m0 0" fill="#FFD594" p-id="9723"></path><path d="M304.32 705.28c-2.4-23.36-16.64-42.88-36.64-54.24 9.28 10.56 15.36 23.52 16.96 38.24 4.32 40.16-27.68 76.48-71.2 80.96-18.24 1.92-35.52-2.08-49.92-10.08 16.16 18.4 41.92 29.12 69.76 26.08 43.36-4.48 75.36-40.64 71.04-80.96z m0 0" fill="#EAC18A" p-id="9724"></path><path d="M722.24 932.32c-9.12 0-18.08-3.84-24.8-11.04-12.32-13.6-11.04-34.72 2.56-46.88l61.6-55.2c13.6-12.32 34.72-11.04 46.88 2.56 12.32 13.6 11.04 34.72-2.56 46.88l-61.6 55.2c-6.4 5.76-14.24 8.48-22.08 8.48z m0 0" fill="#D1A36B" p-id="9725"></path><path d="M772.16 832.48c-4.8-2.88-6.4-9.28-3.36-14.08l28.64-47.68c2.88-4.8 9.28-6.4 14.08-3.36 4.8 2.88 6.4 9.28 3.36 14.08l-28.64 47.68c-3.04 4.8-9.28 6.24-14.08 3.36z m0 0" fill="#003361" p-id="9726"></path><path d="M809.28 781.92l-9.76-5.76a14.576 14.576 0 0 0-20 4.96l-90.24 149.76 34.72 20.96 90.24-149.76c4.16-7.04 1.92-15.84-4.96-20.16z m0 0" fill="#6481A7" p-id="9727"></path><path d="M700.16 964.16l23.84-12.48-34.72-20.96 0.16 26.88c-0.16 5.6 5.76 9.12 10.72 6.56z m0 0" fill="#6481A7" p-id="9728"></path><path d="M722.88 874.88l34.72 20.96-33.76 55.84-34.72-20.96 33.76-55.84z m56.64-93.76l34.72 20.96-5.76 9.6-34.72-20.96 5.76-9.6z m0 0" fill="#003361" p-id="9729"></path><path d="M775.68 826.56c-2.72-1.76-3.84-5.28-2.08-8.16l16.8-27.84c1.76-2.72 5.28-3.84 8.16-2.08 2.72 1.76 3.84 5.28 2.08 8.16L784 824.48c-1.76 2.72-5.44 3.84-8.32 2.08z m0 0" fill="#90A4C2" p-id="9730"></path><path d="M696.64 908.16c0.48 25.76 16 49.28 40.48 61.6 24.48 12.32 54.4 11.68 78.24-1.6 24-13.44 38.4-37.44 37.76-63.36-0.48-25.76-16-49.28-40.48-61.6-24.48-12.32-54.4-11.68-78.24 1.6-23.84 13.6-38.4 37.6-37.76 63.36z m0 0" fill="#FFD594" p-id="9731"></path><path d="M790.4 956.8c-43.2 0.8-79.04-30.56-79.84-70.4-0.16-9.6 1.6-18.56 5.12-27.04-12.32 12.96-19.52 30.08-19.2 48.64 0.8 39.84 36.64 71.2 79.84 70.4 32.96-0.64 60.64-20 71.84-46.88-13.92 15.2-34.72 24.8-57.76 25.28z m0 0" fill="#EAC18A" p-id="9732"></path><path d="M822.24 877.28c-3.2 5.44-14.88 4.8-25.92-1.76-11.04-6.56-17.6-16-14.56-21.76 3.2-5.44 14.88-4.8 25.92 1.76 11.36 6.56 17.76 16.16 14.56 21.76z m0 0" fill="#FFE9CC" p-id="9733"></path></svg>