<?xml version="1.0" standalone="no"?><!DOCTYPE svg PUBLIC "-//W3C//DTD SVG 1.1//EN" "http://www.w3.org/Graphics/SVG/1.1/DTD/svg11.dtd"><svg t="1590565127780" class="icon" viewBox="0 0 1024 1024" version="1.1" xmlns="http://www.w3.org/2000/svg" p-id="5949" xmlns:xlink="http://www.w3.org/1999/xlink" width="200" height="200"><defs><style type="text/css"></style></defs><path d="M828.6 440.3m-42.9 0a42.9 42.9 0 1 0 85.8 0 42.9 42.9 0 1 0-85.8 0Z" fill="#04BDEF" p-id="5950"></path><path d="M103.8 639.3m-32.1 0a32.1 32.1 0 1 0 64.2 0 32.1 32.1 0 1 0-64.2 0Z" fill="#04BDEF" p-id="5951"></path><path d="M290.6 315.9m-124.4 0a124.4 124.4 0 1 0 248.8 0 124.4 124.4 0 1 0-248.8 0Z" fill="#04BDEF" p-id="5952"></path><path d="M787.8 861.4m-13.5 0a13.5 13.5 0 1 0 27 0 13.5 13.5 0 1 0-27 0Z" fill="#04BDEF" p-id="5953"></path><path d="M404.4 568.5h-70.8c-50.2 0-91.4-41.2-91.4-91.4V405c0-50.2 41.2-91.4 91.4-91.4h70.8c50.2 0 91.4 41.2 91.4 91.4v70.8c1.3 51.5-39.9 92.7-91.4 92.7z m-70.8-216.2c-29.6 0-52.8 24.5-52.8 52.8v70.8c0 29.6 24.5 52.8 52.8 52.8h70.8c29.6 0 52.8-24.5 52.8-52.8v-70.8c0-29.6-24.5-52.8-52.8-52.8h-70.8z m361.7 216.2h-70.8c-50.2 0-91.4-41.2-91.4-91.4V405c0-50.2 41.2-91.4 91.4-91.4h70.8c50.2 0 91.4 41.2 91.4 91.4v70.8c0 51.5-41.2 92.7-91.4 92.7z m-70.8-216.2c-29.6 0-52.8 24.5-52.8 52.8v70.8c0 29.6 24.5 52.8 52.8 52.8h70.8c29.6 0 52.8-24.5 52.8-52.8v-70.8c0-29.6-24.5-52.8-52.8-52.8h-70.8zM404.4 859.4h-70.8c-50.2 0-91.4-41.2-91.4-91.4v-70.8c0-50.2 41.2-91.4 91.4-91.4h70.8c50.2 0 91.4 41.2 91.4 91.4V768c1.3 50.3-39.9 91.4-91.4 91.4z m-70.8-216.2c-29.6 0-52.8 24.5-52.8 52.8v70.8c0 29.6 24.5 52.8 52.8 52.8h70.8c29.6 0 52.8-24.5 52.8-52.8V696c0-29.6-24.5-52.8-52.8-52.8h-70.8z m0 0" fill="#0046C1" p-id="5954"></path><path d="M753.3 672.8H570.5c-10.3 0-19.3-9-19.3-19.3s9-19.3 19.3-19.3h184.1c10.3 0 19.3 9 19.3 19.3s-10.3 19.3-20.6 19.3zM722.4 759H570.5c-10.3 0-19.3-9-19.3-19.3s9-19.3 19.3-19.3h151.9c10.3 0 19.3 9 19.3 19.3s-9 19.3-19.3 19.3z m-76 87.6h-75.9c-10.3 0-19.3-9-19.3-19.3s9-19.3 19.3-19.3h75.9c10.3 0 19.3 9 19.3 19.3s-9 19.3-19.3 19.3z m0 0" fill="#04BDEF" p-id="5955"></path></svg>